<?xml version="1.0" standalone="no"?>
<!DOCTYPE svg PUBLIC "-//W3C//DTD SVG 20010904//EN"
 "http://www.w3.org/TR/2001/REC-SVG-20010904/DTD/svg10.dtd">
<svg version="1.0" xmlns="http://www.w3.org/2000/svg"
 width="1440.000000pt" height="1440.000000pt" viewBox="0 0 1440.000000 1440.000000"
 preserveAspectRatio="xMidYMid meet">
<metadata>
Created by potrace 1.14, written by Peter Selinger 2001-2017
</metadata>
<g transform="translate(0.000000,1440.000000) scale(0.100000,-0.100000)"
fill="#000000" stroke="none">
<path d="M0 4463 c0 -5 19 -14 43 -20 23 -6 146 -38 272 -71 354 -94 2028
-513 2032 -508 4 4 -6 7 -952 245 -705 179 -1345 344 -1378 357 -9 3 -17 2
-17 -3z"/>
<path d="M6 4221 c7 -7 1025 -262 1319 -330 85 -19 218 -51 505 -120 69 -16
204 -48 300 -70 179 -42 267 -63 609 -145 106 -26 198 -45 203 -44 6 2 -12 9
-38 16 -62 15 -437 105 -574 138 -58 14 -161 39 -230 55 -240 58 -287 69 -565
134 -297 70 -739 178 -1228 301 -163 41 -300 74 -304 74 -4 0 -3 -4 3 -9z"/>
<path d="M3550 3961 c-5 -11 -90 -82 -187 -157 -124 -96 -185 -138 -202 -137
-17 1 -20 -1 -10 -7 7 -5 11 -11 9 -13 -3 -2 -45 -34 -95 -70 -49 -37 -94 -70
-100 -75 -63 -51 -192 -147 -213 -158 -25 -12 -28 -22 -42 -111 l-15 -98 -30
3 c-41 4 -693 118 -1190 208 -409 74 -702 130 -1205 229 -146 29 -267 51 -269
49 -9 -9 11 -14 154 -44 235 -48 1064 -205 1400 -264 394 -70 932 -165 1030
-181 55 -9 101 -18 103 -19 11 -11 -39 -198 -86 -316 -31 -80 -57 -147 -59
-149 -3 -5 -49 5 -483 100 -349 76 -751 166 -1025 229 -477 110 -830 191 -925
214 -97 23 -123 25 -107 10 14 -15 1516 -357 2232 -510 307 -65 295 -62 295
-80 0 -17 -7 -17 -64 -2 -53 14 -106 -3 -106 -33 0 -11 -3 -19 -6 -19 -24 0
-375 84 -397 95 -15 8 -34 11 -42 8 -24 -9 -115 17 -115 33 0 12 -4 12 -21 2
-17 -11 -22 -10 -34 5 -8 12 -15 14 -20 8 -9 -16 -35 -13 -35 4 0 18 -12 19
-29 3 -10 -11 -15 -10 -25 4 -8 11 -21 14 -39 11 -16 -3 -27 -1 -27 6 0 7 -9
9 -25 5 -18 -4 -27 -1 -31 10 -5 13 -9 14 -20 5 -11 -9 -19 -8 -33 5 -11 10
-21 13 -25 7 -7 -11 -69 4 -74 18 -1 4 -13 6 -25 4 -19 -4 -438 87 -1145 247
-157 36 -210 43 -191 26 5 -4 682 -158 1043 -236 154 -33 282 -63 285 -66 7
-6 -119 4 -189 16 -55 9 -1074 215 -1112 225 -16 4 -28 3 -28 -2 0 -4 235 -55
523 -112 287 -57 533 -107 547 -111 19 -7 12 -9 -31 -9 -31 -1 -79 -8 -105
-17 -49 -15 -50 -15 -349 50 -165 37 -318 71 -340 76 -56 14 -227 50 -237 50
-4 0 -8 -4 -8 -8 0 -5 35 -16 78 -26 275 -59 769 -168 781 -172 11 -3 10 -9
-3 -29 -20 -30 -21 -107 -2 -144 18 -34 81 -78 124 -87 18 -4 35 -11 38 -16 4
-6 -1 -8 -12 -4 -37 11 -203 48 -409 91 -116 24 -280 59 -365 78 -208 46 -230
50 -230 37 0 -5 9 -10 20 -10 11 0 102 -18 203 -41 100 -22 298 -65 439 -94
322 -68 313 -66 297 -76 -16 -10 10 -16 169 -39 73 -11 85 -17 78 -37 -11 -27
5 -34 24 -10 26 32 70 26 70 -9 0 -29 11 -31 28 -4 18 30 32 24 32 -12 l1 -33
20 28 c27 36 39 34 39 -5 l1 -33 18 23 c11 12 24 22 30 22 12 0 14 -20 3 -35
-8 -12 -180 -159 -268 -230 -34 -27 -96 -78 -139 -113 -42 -34 -80 -60 -84
-58 -3 2 -45 10 -91 16 -139 18 -688 99 -789 116 -81 13 -115 13 -100 0 5 -4
585 -89 818 -120 l165 -22 -134 -109 c-81 -66 -137 -120 -144 -137 -6 -15 -14
-28 -19 -28 -5 0 -113 23 -241 51 -339 74 -409 89 -428 95 -10 3 -18 1 -18 -4
0 -8 155 -45 530 -123 85 -18 157 -34 159 -36 2 -1 -2 -22 -8 -45 -7 -24 -19
-71 -27 -106 -9 -34 -19 -62 -22 -62 -4 0 -59 7 -122 16 -504 67 -517 69 -509
60 5 -5 579 -86 616 -86 24 0 8 -60 -42 -160 l-43 -86 -126 20 c-99 16 -125
23 -121 34 18 48 17 62 -8 73 -24 11 -31 8 -75 -29 l-49 -41 -77 13 c-42 7
-76 10 -76 5 0 -9 20 -15 84 -24 l49 -7 -29 -24 c-16 -14 -46 -36 -66 -51 -34
-23 -38 -31 -38 -67 l0 -41 18 27 c9 14 52 54 94 87 76 61 114 77 104 44 -3
-10 -22 -72 -42 -138 -45 -150 -53 -165 -102 -166 -23 -1 -29 -3 -14 -6 33 -7
28 -44 -19 -129 -24 -44 -39 -84 -37 -98 l3 -25 48 24 c87 45 105 27 31 -30
-26 -19 -55 -35 -65 -35 -18 0 -19 -11 -19 -155 0 -85 2 -155 5 -155 3 0 11
14 17 30 12 29 14 30 33 16 18 -14 18 -15 3 -16 -10 0 -18 -6 -18 -14 0 -7
-10 -20 -21 -28 -12 -8 -20 -19 -18 -25 4 -11 93 50 146 100 13 11 25 18 28
15 3 -3 -6 -38 -19 -79 -13 -41 -29 -96 -35 -124 -6 -27 -13 -60 -17 -72 -6
-22 -4 -23 68 -23 l75 0 13 55 c7 31 23 64 36 76 29 28 38 21 24 -17 -7 -16
-15 -48 -19 -72 l-8 -42 43 0 c37 0 45 4 58 27 18 37 56 164 56 191 0 11 3 23
8 25 4 3 50 -3 102 -13 52 -10 116 -21 143 -24 76 -11 65 -34 -65 -128 -24
-18 -50 -28 -73 -28 -19 0 -35 -4 -35 -10 0 -5 4 -10 10 -10 5 0 7 -7 4 -15
-5 -11 1 -15 25 -15 17 0 31 5 31 12 0 9 3 9 12 0 7 -7 20 -12 30 -12 15 0 17
4 8 19 -8 16 -4 24 29 50 21 17 42 31 45 31 4 0 -5 -20 -19 -45 -29 -53 -29
-55 -11 -55 7 0 25 27 39 60 16 37 32 60 42 60 9 0 33 11 53 25 20 14 42 25
48 25 7 0 14 6 17 13 2 6 7 10 10 7 5 -5 -9 -86 -28 -163 l-7 -27 86 0 87 0
16 37 c9 21 16 42 14 47 -1 6 0 19 3 31 l6 22 165 -28 c91 -16 170 -31 175
-34 5 -3 5 -18 -2 -36 -6 -16 -8 -33 -4 -36 3 -3 9 8 12 26 8 41 22 46 87 35
50 -9 52 -10 50 -39 -2 -28 -2 -28 6 -5 6 21 13 25 40 23 65 -3 101 -14 101
-30 0 -12 3 -13 14 -4 10 9 25 9 58 1 23 -6 86 -10 138 -8 l95 3 34 177 c26
138 37 178 48 178 13 0 15 -13 10 -78 l-5 -77 41 -42 c41 -43 41 -43 15 -43
-30 0 -65 -41 -74 -87 -5 -28 -4 -29 36 -31 40 -3 41 -2 29 20 -6 13 -18 27
-25 31 -11 6 -11 12 -1 27 13 22 47 26 65 8 7 -7 12 -8 12 -3 0 6 24 8 55 7
43 -3 61 -10 84 -31 16 -15 33 -25 38 -24 5 2 18 -6 28 -17 15 -16 31 -20 88
-20 69 0 70 0 52 20 -10 11 -21 17 -26 15 -4 -3 -14 4 -22 15 -7 11 -16 17
-20 14 -13 -13 -26 7 -17 29 4 12 11 30 14 39 4 15 10 16 31 8 17 -7 24 -7 20
0 -3 6 -13 10 -21 10 -8 0 -15 6 -15 13 -1 6 -2 28 -3 47 -2 19 -6 55 -10 80
-10 57 6 102 31 94 15 -5 15 -4 3 5 -12 9 -11 21 13 95 32 99 62 129 92 96 10
-11 24 -20 31 -20 11 0 114 -142 169 -232 45 -73 228 -328 236 -328 13 0 11 3
-80 135 -128 184 -127 181 -73 166 18 -5 32 -6 32 -1 0 4 -20 11 -43 14 -43 7
-45 9 -130 135 -48 71 -87 139 -87 151 0 12 -34 71 -75 132 -42 61 -74 112
-73 114 2 2 26 -4 53 -12 28 -8 142 -40 255 -70 113 -30 237 -63 275 -73 161
-45 303 -81 316 -80 23 1 -22 14 -366 104 -181 48 -379 101 -440 119 l-109 31
-62 92 c-33 51 -75 108 -93 128 -17 20 -31 42 -31 50 0 9 -10 15 -24 15 -14 0
-28 5 -31 10 -4 6 5 10 19 10 14 0 26 4 26 10 0 10 39 34 46 28 2 -3 -1 -20
-6 -38 -16 -55 3 -59 59 -12 28 23 60 42 73 42 13 0 64 -10 113 -21 237 -53
878 -180 883 -175 3 3 1 6 -5 6 -6 0 -149 29 -319 65 -170 37 -345 73 -389 81
-45 9 -89 23 -100 34 -25 23 -133 45 -181 37 -20 -4 -43 -15 -51 -27 -17 -24
-48 -28 -39 -4 3 9 6 18 6 20 0 2 7 4 15 4 8 0 15 6 15 14 0 8 67 47 162 93
l162 79 170 -52 c94 -29 266 -80 381 -115 116 -34 212 -63 213 -64 2 -2 -3
-52 -12 -112 -18 -121 -63 -441 -77 -547 -10 -75 -17 -87 -91 -143 -26 -21
-48 -41 -48 -45 0 -13 31 7 78 50 49 46 48 50 26 -108 -14 -95 -23 -129 -56
-193 -29 -57 -35 -77 -24 -77 8 0 20 16 26 35 16 49 29 52 23 5 l-6 -40 106 0
105 0 7 42 c6 33 22 59 71 114 60 66 81 114 52 114 -7 0 -34 -21 -62 -48 -27
-26 -46 -40 -43 -31 3 8 8 46 12 83 6 50 12 70 26 79 23 14 25 32 4 23 -19 -7
-19 3 4 149 11 66 28 176 37 244 14 93 23 131 39 148 l20 24 250 -50 c138 -28
327 -67 420 -86 94 -20 306 -64 472 -98 l302 -62 198 -280 c109 -154 197 -281
196 -282 -2 -2 5 -11 15 -21 10 -10 26 -29 35 -42 9 -13 19 -21 23 -18 5 5
-14 41 -39 73 -105 137 -436 620 -427 623 5 2 31 -3 57 -11 49 -15 145 -42
352 -97 62 -17 115 -29 117 -27 5 5 -206 66 -406 117 l-145 37 -107 149 c-60
82 -138 193 -175 247 -108 157 -124 178 -208 298 -151 216 -164 234 -220 314
-64 93 -71 129 -27 146 15 6 44 8 65 5 26 -5 47 -1 66 10 26 16 34 14 232 -50
196 -62 983 -300 1594 -479 711 -210 1948 -557 2505 -703 445 -117 1123 -285
1134 -281 6 2 -20 11 -59 20 -274 65 -1251 319 -1545 402 -85 24 -243 67 -350
95 -107 29 -285 78 -395 110 -110 32 -276 79 -370 105 -205 56 -417 118 -970
282 -1118 331 -1671 501 -1726 529 -15 7 -29 23 -32 35 -6 21 -4 21 59 14 52
-5 67 -4 80 10 9 9 24 13 32 10 31 -11 758 -236 1002 -310 135 -40 364 -109
510 -153 146 -44 423 -126 615 -182 193 -56 474 -138 625 -182 405 -118 611
-176 1305 -368 83 -23 287 -78 455 -122 886 -232 1088 -283 1096 -275 3 2
-107 32 -243 66 -136 34 -322 82 -413 106 -91 24 -253 67 -360 95 -604 159
-1122 303 -1665 462 -55 16 -138 40 -185 52 -87 24 -463 134 -790 232 -102 30
-214 64 -250 74 -36 11 -148 45 -250 76 -102 31 -205 62 -230 69 -73 21 -372
112 -555 170 -93 29 -228 71 -300 93 -369 114 -393 123 -399 139 -11 28 15 44
54 33 47 -14 56 -13 75 7 22 22 -8 30 745 -186 644 -184 1000 -285 1370 -387
113 -31 297 -83 410 -114 113 -32 259 -72 325 -90 101 -26 175 -50 390 -125
17 -6 17 -5 5 5 -22 17 3 11 245 -54 190 -52 748 -201 1030 -275 268 -71 1434
-360 1475 -365 25 -4 -292 79 -705 183 -667 168 -858 217 -1135 291 -41 11
-160 43 -265 71 -882 235 -975 262 -1163 336 -35 13 -66 22 -69 20 -2 -3 19
-13 47 -22 28 -9 50 -19 47 -21 -5 -5 -1482 409 -1932 541 -295 87 -690 200
-741 213 -43 11 -63 21 -70 36 -6 15 -32 28 -84 45 -41 13 -80 31 -87 40 -10
14 -13 14 -30 -2 -26 -22 -31 -22 -35 6 -3 22 -48 39 -48 18 0 -6 -16 -11 -35
-11 -36 0 -43 8 -23 28 19 19 -21 27 -49 10 -22 -13 -32 -13 -89 1 -56 13 -64
18 -64 38 0 23 -2 24 -59 17 -76 -8 -109 0 -121 31 -11 28 -35 33 -44 10 -7
-19 -36 -20 -36 0 0 8 -11 22 -25 31 -14 9 -24 24 -23 32 2 12 -9 19 -39 25
-24 6 -43 16 -46 26 -6 23 24 231 34 231 4 0 112 -41 241 -91 316 -123 1179
-453 1613 -617 597 -226 1424 -526 1431 -519 2 2 -56 25 -128 51 -73 26 -225
82 -338 123 -113 41 -249 91 -303 110 -55 19 -174 63 -265 98 -92 35 -399 152
-682 260 -676 257 -669 255 -710 271 -19 7 -96 36 -170 64 -219 83 -685 263
-689 266 -5 4 27 267 35 297 3 9 12 17 19 17 8 0 17 15 20 33 5 23 21 46 55
75 27 23 55 42 62 42 7 1 1 8 -15 16 -26 14 -27 18 -22 72 10 112 18 147 37
160 22 16 15 32 -13 32 -11 0 -32 6 -48 14 l-28 15 18 128 c25 176 25 187 -6
201 -34 16 -107 15 -128 -1 -13 -9 -23 -46 -37 -146 -10 -73 -20 -134 -22
-136 -50 -46 -219 -159 -238 -159 -21 -1 -26 -8 -35 -46 -12 -52 -21 -70 -38
-70 -9 0 -12 42 -12 158 1 141 4 176 38 346 21 104 36 195 33 202 -8 21 -54
17 -66 -5z m-36 -217 c-15 -82 -28 -150 -29 -152 -1 -1 -10 0 -19 4 -24 9 -21
68 5 85 20 14 20 15 2 46 -15 27 -16 36 -6 52 8 13 9 22 3 26 -6 3 -10 11 -10
17 0 12 70 81 76 75 3 -2 -8 -71 -22 -153z m-74 42 c0 -22 -9 -45 -25 -64
l-25 -30 22 -14 c20 -14 21 -18 10 -43 -10 -22 -17 -26 -38 -21 -15 4 -40 9
-58 11 -30 5 -29 4 4 -5 19 -6 44 -15 55 -20 11 -5 37 -11 58 -15 20 -3 37
-10 37 -15 0 -5 -39 -98 -86 -207 -65 -147 -88 -210 -90 -248 -2 -46 -6 -53
-44 -82 l-41 -31 -67 27 -67 28 1 57 c1 37 7 62 17 69 16 13 63 248 53 272 -5
14 16 137 28 165 6 12 243 200 253 200 2 0 3 -15 3 -34z m-295 -206 c-3 -6 -8
-31 -10 -56 -2 -25 -10 -53 -18 -63 -21 -22 -67 -264 -53 -273 11 -7 -7 -95
-23 -111 -5 -5 -44 -2 -87 7 -44 8 -103 18 -132 22 -30 4 -56 13 -59 20 -3 7
3 57 12 109 l17 96 105 79 c57 44 106 80 109 80 3 0 32 23 65 50 55 46 89 64
74 40z m346 -123 c-17 -17 -22 -2 -9 29 11 28 12 29 16 5 2 -13 -1 -28 -7 -34z
m9 -47 c0 -11 -6 -20 -14 -20 -21 0 -31 21 -15 31 22 14 29 11 29 -11z m0
-102 c0 -11 -96 -68 -116 -68 -7 0 3 31 32 96 l24 55 30 -34 c17 -19 30 -41
30 -49z m0 -72 c0 -36 -91 -100 -131 -91 -50 11 -31 39 56 84 73 37 75 37 75
7z m98 -9 c12 -14 5 -57 -8 -57 -8 0 -20 34 -20 58 0 16 15 15 28 -1z m-108
-76 c-10 -20 -30 -29 -30 -14 0 10 33 44 37 39 3 -2 0 -14 -7 -25z m-609 -66
c157 -29 324 -78 317 -95 -2 -4 -50 -43 -108 -87 -58 -43 -162 -123 -231 -176
l-127 -96 -7 142 c-6 131 -3 177 21 300 7 32 17 33 135 12z m865 -31 c9 -65
-7 -74 -41 -23 -26 40 -27 43 -9 56 31 23 42 15 50 -33z m44 6 c0 -36 -16 -47
-24 -17 -10 39 -7 57 9 51 8 -4 15 -19 15 -34z m-400 -6 c0 -4 -8 -13 -17 -21
-17 -14 -17 -14 0 -9 22 7 23 -17 0 -35 -15 -12 -16 -12 -10 3 3 9 -1 22 -9
29 -11 9 -12 15 -3 25 12 14 39 19 39 8z m230 -55 l-20 -44 6 40 c3 22 11 43
17 47 19 12 18 3 -3 -43z m76 6 c20 -31 11 -45 -28 -45 -25 0 -29 3 -23 18 4
9 10 25 12 35 7 24 20 21 39 -8z m-396 11 c0 -3 -4 -8 -10 -11 -5 -3 -10 -1
-10 4 0 6 5 11 10 11 6 0 10 -2 10 -4z m280 -31 c0 -18 -5 -25 -20 -25 -25 0
-26 18 -2 36 23 18 22 18 22 -11z m206 -22 c-3 -16 -10 -59 -15 -97 -6 -37
-12 -70 -14 -73 -5 -4 -137 46 -150 57 -5 4 28 33 72 64 44 31 83 61 86 66 13
21 26 9 21 -17z m-566 -13 c0 -5 -5 -10 -11 -10 -5 0 -7 5 -4 10 3 6 8 10 11
10 2 0 4 -4 4 -10z m433 -22 c-13 -12 -25 -19 -29 -15 -10 10 16 37 34 37 13
0 12 -4 -5 -22z m-323 -2 c0 -13 -57 -56 -74 -56 -16 0 -3 31 22 49 32 24 52
27 52 7z m179 -12 c6 -15 9 -29 7 -32 -3 -3 2 -11 12 -18 12 -9 14 -16 6 -24
-8 -8 -15 -4 -28 14 -9 15 -13 26 -9 26 4 0 -3 7 -15 16 -18 13 -21 19 -11 30
16 20 24 18 38 -12z m51 -30 c0 -8 -2 -14 -5 -14 -6 0 -35 56 -35 67 1 14 40
-39 40 -53z m-410 14 c-14 -11 -35 -28 -47 -39 -16 -13 -23 -15 -23 -6 0 8 19
27 43 44 45 33 68 34 27 1z m-457 -77 c-1 -1 -6 0 -12 4 -13 7 -14 36 -4 62 6
13 9 8 13 -22 3 -22 5 -42 3 -44z m781 38 c15 -22 26 -42 23 -45 -5 -5 -48 -8
-74 -5 -7 0 -13 10 -13 21 0 22 20 70 29 70 3 0 19 -19 35 -41z m-290 -6 c-4
-15 -11 -19 -26 -15 -20 5 -20 5 3 23 28 21 30 20 23 -8z m46 -3 c0 -5 -5 -10
-11 -10 -5 0 -7 5 -4 10 3 6 8 10 11 10 2 0 4 -4 4 -10z m129 -27 c-8 -10 -23
-19 -34 -21 -16 -3 -14 2 10 22 33 27 44 27 24 -1z m309 -13 c41 -16 77 -32
81 -34 7 -5 -21 -232 -33 -262 -3 -8 -12 -14 -20 -14 -21 0 -31 -51 -12 -62 9
-5 16 -16 16 -25 0 -12 -7 -14 -37 -10 -93 15 -522 111 -517 116 19 20 431
320 439 320 6 1 43 -13 83 -29z m-985 -41 c-5 -4 -18 -10 -30 -14 -26 -7 -29
4 -12 36 10 20 11 20 30 3 11 -10 16 -21 12 -25z m444 27 c-3 -8 -1 -17 6 -20
7 -2 5 -5 -4 -5 -9 -1 -19 8 -22 19 -3 13 0 20 10 20 9 0 13 -6 10 -14z m313
-18 c-14 -5 -33 -14 -42 -19 -10 -5 -19 -5 -23 1 -11 18 4 27 47 28 39 1 41 0
18 -10z m-473 -16 c-10 -10 -15 -21 -11 -24 3 -3 -9 -16 -26 -28 -39 -28 -51
-20 -14 9 15 11 23 21 19 21 -5 0 0 9 10 20 10 11 23 20 28 20 6 0 3 -8 -6
-18z m358 -12 c-16 -31 -38 -32 -55 0 -12 23 -4 30 37 30 l34 0 -16 -30z
m-2180 -1 c22 -6 54 -13 70 -15 17 -3 45 -7 63 -10 27 -4 32 -9 32 -32 l1 -27
18 23 c11 12 30 22 45 22 23 0 26 -4 26 -32 l0 -33 28 30 27 30 5 -35 c5 -35
6 -35 20 -12 20 30 40 28 40 -5 l1 -28 18 23 c26 30 45 29 39 -3 -6 -30 7 -33
24 -5 19 29 42 26 34 -5 -8 -30 9 -33 26 -5 18 28 36 25 30 -5 -5 -30 13 -33
28 -5 15 28 30 25 30 -5 0 -27 17 -34 26 -10 7 17 74 22 74 6 0 -6 -15 -22
-34 -36 l-33 -25 -144 30 c-79 17 -216 47 -304 66 -88 20 -216 46 -285 60 -68
14 -126 27 -128 29 -4 4 22 11 68 18 50 8 116 6 155 -4z m260 1 c17 -7 15 -9
-12 -9 -18 -1 -33 4 -33 9 0 12 17 12 45 0z m1846 -58 c-6 -2 -8 -9 -5 -14 4
-7 2 -8 -5 -4 -6 4 -9 17 -6 29 3 12 -3 6 -14 -13 l-20 -35 -1 32 c0 17 8 39
17 48 15 16 17 15 31 -11 11 -20 11 -29 3 -32z m-1771 44 c0 -3 -4 -8 -10 -11
-5 -3 -10 -1 -10 4 0 6 5 11 10 11 6 0 10 -2 10 -4z m1220 -61 c0 -36 -4 -65
-9 -65 -9 0 -57 57 -75 88 -5 8 4 17 26 27 55 24 58 21 58 -50z m675 45 c-10
-11 -23 -20 -28 -20 -6 0 -2 9 8 20 10 11 23 20 28 20 6 0 2 -9 -8 -20z
m-2255 -49 c478 -98 634 -132 639 -136 6 -6 -2 -14 -99 -93 -41 -34 -83 -69
-92 -77 -26 -22 -38 -18 -38 13 l-1 27 -18 -22 c-26 -31 -41 -29 -41 5 l-1 27
-18 -22 c-25 -30 -41 -29 -41 2 0 30 -16 33 -25 5 -9 -29 -35 -25 -35 5 0 30
-16 33 -25 5 -7 -22 -9 -23 -42 -14 -16 4 -23 14 -23 30 0 29 -13 31 -31 4
-12 -18 -19 -19 -49 -10 -19 5 -56 10 -82 10 -47 0 -57 7 -38 26 6 6 -5 10
-30 10 -53 2 -130 42 -157 84 -14 20 -23 48 -23 72 0 48 34 101 58 94 10 -3
105 -23 212 -45z m1920 40 c0 -6 -4 -13 -10 -16 -5 -3 -10 1 -10 9 0 9 5 16
10 16 6 0 10 -4 10 -9z m-160 -10 c0 -5 -7 -12 -16 -15 -14 -5 -15 -4 -4 9 14
17 20 19 20 6z m280 -31 c0 -5 -5 -10 -11 -10 -5 0 -7 5 -4 10 3 6 8 10 11 10
2 0 4 -4 4 -10z m-542 -20 c10 -17 10 -20 -6 -20 -24 0 -32 8 -25 26 7 19 16
18 31 -6z m362 10 c0 -5 -9 -14 -20 -20 -22 -12 -27 -1 -8 18 14 14 28 16 28
2z m300 0 c0 -5 -2 -10 -4 -10 -3 0 -8 5 -11 10 -3 6 -1 10 4 10 6 0 11 -4 11
-10z m-436 -32 c-4 -6 -10 -5 -15 3 -14 22 -10 33 6 19 8 -7 12 -17 9 -22z
m416 8 c0 -2 -18 -15 -40 -30 -44 -29 -52 -25 -18 11 18 19 58 32 58 19z
m-1255 -24 c-3 -3 -11 0 -18 7 -9 10 -8 11 6 5 10 -3 15 -9 12 -12z m895 10
c0 -5 -6 -16 -13 -27 -10 -12 -16 -14 -21 -7 -4 7 -1 18 6 26 14 17 28 20 28
8z m-242 -27 c11 -9 6 -17 -22 -38 -37 -29 -86 -36 -86 -13 0 7 5 27 11 45 10
30 13 31 48 25 20 -3 42 -12 49 -19z m422 21 c0 -3 -4 -8 -10 -11 -5 -3 -10
-1 -10 4 0 6 5 11 10 11 6 0 10 -2 10 -4z m-290 -16 c0 -5 -2 -10 -4 -10 -3 0
-8 5 -11 10 -3 6 -1 10 4 10 6 0 11 -4 11 -10z m266 -49 c-11 -16 -26 -13 -20
4 4 8 2 15 -4 15 -6 0 -12 -6 -15 -12 -2 -7 -7 -10 -11 -6 -4 3 -2 16 4 28
l12 22 20 -20 c11 -11 17 -25 14 -31z m77 37 c5 -17 -3 -48 -14 -48 -14 0 -21
19 -14 40 7 23 21 26 28 8z m-939 -24 c77 -15 144 -29 148 -33 4 -3 2 -26 -4
-49 -9 -37 -14 -43 -32 -39 -12 3 -93 20 -181 37 -88 18 -163 35 -166 38 -4 4
-5 22 -2 40 5 31 7 32 50 32 25 0 109 -12 187 -26z m-298 0 c-3 -9 -6 -20 -6
-25 0 -5 -9 -9 -20 -9 -24 0 -25 8 -3 32 20 22 37 24 29 2z m885 -12 c-7 -2
-18 1 -23 6 -8 8 -4 9 13 5 13 -4 18 -8 10 -11z m-86 -2 c3 -5 -1 -10 -9 -10
-9 0 -16 5 -16 10 0 6 4 10 9 10 6 0 13 -4 16 -10z m285 -30 c0 -9 -53 -21
-60 -13 -3 2 3 11 13 18 19 13 47 10 47 -5z m-198 -15 c-37 -31 -42 -31 -41
-2 0 12 3 16 6 10 3 -10 8 -9 20 2 8 8 21 15 29 15 10 0 5 -9 -14 -25z m-908
-23 c-1 -17 -9 -65 -19 -107 -16 -74 -30 -90 -53 -62 -16 19 -3 67 19 67 16 0
17 6 12 49 -3 30 -1 51 5 55 6 4 8 14 5 22 -4 12 -1 15 13 12 14 -3 19 -12 18
-36z m818 26 c-9 -9 -15 -9 -24 0 -9 9 -7 12 12 12 19 0 21 -3 12 -12z m-874
-26 c2 -7 -10 -26 -28 -43 -20 -21 -28 -35 -21 -43 10 -11 3 -66 -8 -66 -3 0
-16 -3 -28 -6 -19 -5 -23 -2 -23 15 0 27 -11 27 -35 -1 l-20 -23 -3 27 c-3 21
6 35 35 61 21 19 54 48 73 65 35 32 51 35 58 14z m500 -80 c5 -32 -5 -43 -97
-117 l-83 -68 -87 18 c-110 22 -151 34 -151 46 0 13 41 203 46 210 2 3 86 -10
186 -30 167 -34 183 -39 186 -59z m1087 38 c121 -26 237 -51 258 -54 37 -7 47
-25 29 -53 -12 -19 -146 -10 -302 20 -74 15 -147 27 -161 27 -14 0 -34 7 -45
15 -11 8 -43 15 -74 15 -30 1 -64 5 -75 9 -17 7 -13 12 30 45 59 43 31 45 340
-24z m-412 36 c4 -10 1 -13 -9 -9 -8 3 -14 -1 -14 -11 0 -18 -45 -22 -69 -7
-12 8 -12 12 -2 25 17 21 87 22 94 2z m-160 -71 c-20 -41 -28 -39 -18 4 4 17
13 31 21 31 11 0 11 -6 -3 -35z m-318 6 c-3 -6 -11 -11 -17 -11 -6 0 -6 6 2
15 14 17 26 13 15 -4z m45 -1 c0 -5 -7 -10 -15 -10 -8 0 -15 5 -15 10 0 6 7
10 15 10 8 0 15 -4 15 -10z m370 6 c0 -11 -19 -15 -25 -6 -3 5 1 10 9 10 9 0
16 -2 16 -4z m-44 -35 c-4 -6 -14 -11 -22 -11 -12 0 -13 4 -3 21 7 14 14 18
21 11 6 -6 7 -15 4 -21z m209 4 c28 -8 68 -16 90 -19 22 -3 127 -24 233 -47
142 -31 192 -46 192 -57 0 -8 6 -12 15 -8 10 4 15 -1 15 -14 0 -11 5 -20 10
-20 6 0 10 -4 10 -10 0 -5 -21 -3 -47 5 -60 19 -82 19 -102 1 -14 -12 -27 -12
-91 -1 -82 15 -519 104 -534 108 -5 2 17 22 49 45 63 44 61 44 160 17z m-328
-17 c-3 -7 -5 -2 -5 12 0 14 2 19 5 13 2 -7 2 -19 0 -25z m-267 9 c0 -7 -7
-22 -16 -33 -14 -17 -15 -17 -10 -1 3 10 6 25 6 33 0 8 5 14 10 14 6 0 10 -6
10 -13z m64 -6 c4 -5 3 -15 0 -23 -7 -17 -64 -62 -70 -55 -3 2 3 23 12 46 15
39 44 55 58 32z m296 -25 c0 -3 -4 -8 -10 -11 -5 -3 -10 -1 -10 4 0 6 5 11 10
11 6 0 10 -2 10 -4z m-120 -27 c13 -22 10 -64 -4 -64 -16 0 -49 53 -43 69 9
22 34 20 47 -5z m327 -49 c109 -23 246 -50 304 -61 118 -23 126 -26 131 -54 2
-15 -10 -27 -55 -51 -33 -17 -69 -43 -80 -57 -35 -41 -62 -50 -115 -38 -26 5
-68 13 -93 16 -26 3 -55 12 -65 20 -11 8 -28 12 -39 9 -24 -6 -416 64 -428 76
-8 7 217 178 235 180 5 0 97 -18 205 -40z m-1514 -62 c-16 -29 -44 -93 -63
-141 l-35 -88 -44 6 c-24 4 -50 9 -59 13 -9 3 -13 1 -9 -5 4 -6 25 -13 47 -17
24 -4 43 -13 47 -22 3 -9 -6 -40 -20 -70 l-26 -53 -53 6 c-29 3 -54 7 -55 8
-2 1 4 26 12 56 8 30 23 89 32 133 l18 79 89 76 c49 42 95 75 101 73 7 -1 19
5 26 14 27 33 22 -13 -8 -68z m99 54 c-4 -26 5 -28 29 -6 15 13 30 15 73 10
31 -4 58 -12 61 -17 3 -5 -30 -86 -74 -181 -80 -175 -104 -239 -95 -262 3 -7
-3 -20 -14 -29 -17 -15 -24 -14 -105 13 -48 16 -92 32 -97 35 -5 3 -2 17 6 33
7 15 14 34 14 43 0 33 33 56 75 52 42 -3 39 1 -8 11 -23 6 -26 9 -18 25 6 10
7 21 4 25 -3 3 -1 6 5 6 7 0 12 7 12 15 0 8 12 40 26 72 14 32 28 71 30 87 4
31 53 96 69 92 6 -2 9 -13 7 -24z m1044 1 c20 -27 17 -33 -16 -33 -28 0 -29 1
-18 25 13 30 17 30 34 8z m1214 7 c0 -5 -2 -10 -4 -10 -3 0 -8 5 -11 10 -3 6
-1 10 4 10 6 0 11 -4 11 -10z m260 5 c0 -11 -50 -36 -60 -30 -17 11 8 35 36
35 13 0 24 -2 24 -5z m-140 -30 c7 -9 10 -18 6 -22 -7 -8 -56 17 -56 29 0 14
37 9 50 -7z m338 -2 c17 -3 32 -9 32 -13 0 -8 -189 -125 -194 -119 -28 38 -47
71 -42 76 3 3 29 21 58 39 40 25 60 32 83 28 17 -3 45 -8 63 -11z m-2320 -25
c63 -14 63 -14 42 -33 -11 -10 -18 -26 -15 -35 3 -11 -24 -39 -90 -93 l-95
-78 0 130 0 129 48 -3 c26 -2 75 -10 110 -17z m-207 -51 c-17 -17 -22 -2 -9
29 11 28 12 29 16 5 2 -13 -1 -28 -7 -34z m818 27 c-14 -18 -24 -11 -15 11 3
9 11 13 16 10 8 -5 7 -11 -1 -21z m1851 -14 c10 -10 21 -27 25 -39 7 -25 27
-27 45 -6 15 18 30 11 30 -16 0 -13 7 -19 24 -19 22 0 54 -25 45 -34 -10 -10
-139 29 -139 41 0 15 -36 18 -45 3 -12 -20 -35 -10 -35 15 0 25 -23 35 -35 15
-8 -13 -62 -13 -70 0 -3 5 15 22 40 38 51 32 85 32 115 2z m-490 1 c0 -20 -95
-47 -147 -42 -20 2 -15 25 7 39 17 10 21 10 26 -3 7 -17 40 -20 49 -4 15 23
65 31 65 10z m-2170 -73 l0 -32 -22 22 c-20 19 -21 24 -8 32 25 16 30 12 30
-22z m2289 -23 c11 -11 6 -18 -29 -41 l-42 -28 -44 24 c-24 14 -44 28 -44 31
0 4 14 16 31 27 26 16 37 18 73 9 22 -5 47 -15 55 -22z m196 21 c31 -6 56 -29
53 -49 -4 -27 -45 -36 -54 -13 -4 11 -19 16 -45 16 -26 0 -39 4 -39 14 0 19
42 46 60 40 8 -3 20 -7 25 -8z m-1532 -31 c76 -14 166 -34 198 -45 33 -10 72
-17 87 -15 33 6 133 -16 134 -30 0 -5 -14 -17 -31 -26 -18 -8 -36 -20 -39 -25
-4 -6 -92 -54 -195 -108 -151 -77 -192 -94 -207 -86 -10 5 -32 7 -49 4 -28 -6
-29 -8 -14 -19 15 -11 15 -14 -7 -31 -32 -26 -39 -35 -143 -164 -149 -186
-229 -280 -241 -280 -33 1 -37 15 -21 91 13 64 20 79 52 107 43 38 45 38 58
10 12 -27 40 -26 72 4 51 48 133 266 133 355 0 63 -7 83 -30 83 -23 0 -82 -66
-105 -117 -14 -32 -26 -43 -56 -53 -22 -7 -41 -11 -44 -8 -3 2 2 38 10 79 11
50 22 78 35 88 11 7 20 20 20 28 0 33 200 197 230 188 8 -2 77 -16 153 -30z
m-723 -11 c-11 -46 -16 -50 -30 -24 -9 18 -8 25 6 41 26 28 33 23 24 -17z
m-263 4 c13 -12 23 -29 23 -37 0 -15 -99 -76 -108 -67 -5 6 49 126 56 126 3 0
16 -10 29 -22z m1829 -1 c3 -3 3 -28 -1 -55 l-7 -50 -81 0 c-45 0 -95 5 -112
12 l-29 12 89 45 c82 41 125 52 141 36z m-2385 -45 c-6 -12 -11 -28 -11 -37 0
-9 -7 -42 -16 -72 l-16 -55 -77 5 c-47 4 -65 3 -46 -2 17 -5 50 -9 73 -10 l44
-1 -7 -42 c-10 -62 -120 -288 -140 -288 -28 0 -160 32 -170 41 -5 6 -4 9 3 9
7 0 12 4 12 9 0 9 71 160 90 191 5 8 11 27 15 42 3 15 22 43 43 62 58 54 207
174 210 171 2 -2 -1 -12 -7 -23z m2729 2 c22 -15 40 -28 40 -29 0 -7 -72 -45
-85 -45 -7 0 -25 14 -40 32 l-27 32 24 18 c31 24 41 23 88 -8z m482 4 c2 -17
9 -22 26 -21 12 2 22 -2 22 -8 0 -8 -16 -10 -46 -6 -55 6 -73 19 -54 42 19 23
48 19 52 -7z m-2452 2 c0 -5 -2 -10 -4 -10 -3 0 -8 5 -11 10 -3 6 -1 10 4 10
6 0 11 -4 11 -10z m2211 -76 l52 -77 -44 7 c-24 4 -86 11 -137 15 -51 4 -97
12 -102 17 -6 6 21 28 77 62 48 29 90 52 95 52 4 0 31 -34 59 -76z m-2261 46
c0 -5 -5 -10 -11 -10 -5 0 -7 5 -4 10 3 6 8 10 11 10 2 0 4 -4 4 -10z m56 -25
c8 -45 -1 -55 -27 -28 -17 17 -19 24 -10 42 17 31 29 26 37 -14z m44 25 c0 -5
-4 -10 -10 -10 -5 0 -10 5 -10 10 0 6 5 10 10 10 6 0 10 -4 10 -10z m1827 -29
l32 -39 -24 -16 c-52 -34 -96 17 -65 75 15 26 20 24 57 -20z m-2054 -1 c7 -29
-96 -113 -127 -104 -11 4 -23 8 -24 9 -7 6 9 45 18 45 6 0 101 52 126 69 1 1
4 -8 7 -19z m103 -4 c9 -22 -25 -78 -44 -74 -26 5 -26 37 -1 64 26 27 37 30
45 10z m1503 -13 c107 -17 132 -33 96 -59 -16 -12 -17 -14 -2 -20 10 -3 17
-15 17 -26 0 -17 4 -19 27 -14 l26 7 -6 -74 c-5 -61 -24 -143 -26 -114 -1 5
-10 2 -21 -6 -16 -11 -34 -11 -112 -1 -80 11 -95 11 -109 -2 -13 -12 -25 -13
-70 -3 -30 6 -58 15 -64 19 -5 4 -38 10 -73 14 -72 8 -92 14 -92 28 0 11 105
144 123 155 6 4 17 17 23 28 11 21 119 84 144 85 8 0 62 -8 119 -17z m881 -4
c0 -6 -4 -7 -10 -4 -5 3 -10 11 -10 16 0 6 5 7 10 4 6 -3 10 -11 10 -16z
m-2132 -11 c7 -7 12 -19 12 -27 0 -11 -4 -10 -20 4 -21 19 -26 35 -12 35 4 0
13 -5 20 -12z m-209 -11 c13 -16 5 -27 -20 -27 -12 0 -16 6 -12 20 6 23 16 25
32 7z m221 -58 c0 -4 -20 -9 -45 -11 -50 -4 -52 0 -29 44 l16 30 29 -28 c16
-15 29 -31 29 -35z m2180 20 c0 -5 -6 -9 -14 -9 -15 0 -28 24 -19 34 7 7 33
-13 33 -25z m-2292 -4 c-6 -14 -17 -25 -24 -25 -7 0 -21 -3 -31 -6 -10 -3 -2
8 17 25 43 37 53 39 38 6z m1950 -5 c64 -29 71 -31 157 -24 89 6 90 6 104 -19
18 -33 10 -42 -50 -62 -144 -48 -352 -28 -408 39 -10 12 -3 21 51 55 35 22 66
41 71 41 4 0 38 -14 75 -30z m-2138 -7 c-1 -21 -13 -53 -21 -53 -10 0 -12 43
-2 53 9 9 23 9 23 0z m40 -3 c0 -5 -5 -10 -11 -10 -5 0 -7 5 -4 10 3 6 8 10
11 10 2 0 4 -4 4 -10z m1180 -9 c0 -5 -3 -11 -8 -13 -4 -1 -32 -34 -61 -72
l-55 -69 -65 7 c-35 3 -69 10 -74 15 -7 7 36 33 119 75 137 68 144 71 144 57z
m-1060 -30 c0 -5 -6 -24 -14 -42 -15 -36 -15 -36 -32 20 -5 15 12 31 34 31 6
0 12 -4 12 -9z m55 -26 c-22 -18 -41 -32 -43 -30 -2 2 4 17 13 34 12 23 22 31
43 31 l27 -1 -40 -34z m-687 -4 c188 -47 187 -29 11 -172 -85 -68 -169 -135
-186 -147 l-33 -23 0 28 c2 70 19 233 30 286 16 69 14 69 178 28z m572 8 c0
-6 -4 -7 -10 -4 -5 3 -10 11 -10 16 0 6 5 7 10 4 6 -3 10 -11 10 -16z m186
-16 c-4 -21 -11 -49 -15 -63 -5 -14 -14 -56 -21 -95 -7 -38 -23 -100 -36 -137
-13 -38 -28 -96 -33 -129 -6 -34 -12 -63 -14 -65 -2 -2 -97 17 -212 41 -114
25 -210 44 -212 41 -2 -2 4 -7 14 -10 20 -6 399 -86 408 -86 3 0 5 -18 5 -41
0 -33 -4 -42 -20 -46 -23 -6 -40 -55 -22 -61 13 -4 15 -37 5 -95 l-6 -39 -55
7 c-38 5 -52 3 -48 -4 5 -7 -10 -11 -46 -11 -29 0 -71 -3 -92 -7 -27 -4 -37
-3 -32 5 3 6 2 13 -4 17 -5 3 -10 15 -10 26 0 15 5 19 18 15 97 -28 134 -37
144 -34 11 4 -145 48 -167 48 -6 0 -24 12 -40 28 -51 47 -75 56 -160 55 -50 0
-80 -4 -83 -12 -2 -6 -9 -11 -16 -11 -19 0 -96 -69 -96 -86 0 -12 -13 -14 -67
-10 l-68 5 53 -11 c38 -8 52 -15 52 -28 0 -14 -8 -16 -57 -12 -32 2 -59 5 -60
6 -1 1 3 19 9 39 10 31 16 37 40 37 15 0 28 5 28 10 0 6 6 10 14 10 15 0 26
21 26 51 0 11 9 21 24 25 14 3 27 12 30 20 3 7 30 29 60 49 29 19 82 59 117
90 35 30 67 55 70 55 4 0 20 12 36 28 17 15 91 74 166 131 108 81 142 102 159
97 13 -3 54 -15 92 -26 38 -11 65 -16 60 -11 -5 5 -42 18 -83 30 -42 13 -70
26 -65 31 14 14 209 169 213 169 2 1 0 -16 -3 -36z m-1216 -8 c-6 -16 -36 -73
-66 -127 -41 -72 -60 -98 -71 -94 -8 3 -23 6 -34 6 -23 0 -26 32 -4 54 8 8 13
21 10 28 -3 7 12 30 32 50 45 43 137 117 141 113 1 -1 -2 -15 -8 -30z m2907
-20 c51 -37 70 -45 110 -46 84 -2 226 21 282 47 66 30 91 30 112 1 147 -206
347 -495 369 -534 8 -14 24 -36 36 -49 12 -13 50 -65 85 -116 36 -51 102 -146
148 -211 46 -65 82 -119 80 -121 -2 -2 -40 7 -84 19 -44 13 -204 58 -355 100
-151 43 -318 90 -370 106 -52 15 -175 51 -273 80 -151 44 -181 56 -190 76 -11
26 -37 31 -37 8 0 -18 -7 -18 -49 -4 -30 11 -32 14 -26 48 12 72 36 258 42
319 5 54 9 65 28 72 32 12 39 37 13 51 -18 10 -20 17 -14 62 14 111 19 137 25
137 4 0 35 -20 68 -45z m-2159 13 c-3 -7 -17 -15 -33 -16 -25 -3 -27 -2 -16
12 16 19 55 22 49 4z m281 -12 c28 -29 20 -46 -20 -46 -30 0 -33 7 -23 48 8
28 15 28 43 -2z m-68 -13 c-4 -15 -12 -28 -18 -30 -9 -3 -9 4 0 26 14 38 28
41 18 4z m-271 -23 c0 -5 -9 -10 -20 -10 -11 0 -20 5 -20 10 0 6 9 10 20 10
11 0 20 -4 20 -10z m-79 -63 c-13 -13 -15 1 -4 30 7 17 8 17 11 -1 2 -10 -1
-23 -7 -29z m389 23 c-27 -20 -36 -19 -27 5 4 8 17 15 29 15 l23 0 -25 -20z
m902 -3 c45 -10 47 -12 44 -44 -2 -40 -101 -173 -128 -173 -10 0 -18 -6 -18
-13 0 -8 -11 -19 -23 -24 -19 -9 -45 -5 -128 20 -57 17 -106 32 -107 33 -2 1
22 33 52 71 49 59 68 74 144 110 48 23 94 39 102 36 8 -3 36 -11 62 -16z
m-1677 -19 c-7 -30 -20 -47 -37 -48 -3 0 1 18 10 40 20 48 36 53 27 8z m1201
-6 c-8 -21 -19 -64 -26 -95 -10 -48 -16 -60 -42 -73 l-31 -16 7 54 c12 92 24
122 58 145 45 30 49 28 34 -15z m-492 6 c6 -25 -16 -54 -32 -44 -7 4 -6 16 1
36 14 36 23 38 31 8z m-364 -8 c-6 -11 -18 -20 -27 -20 -14 0 -14 2 2 20 10
11 22 20 27 20 5 0 4 -9 -2 -20z m1406 -18 c-8 -9 -19 -13 -22 -9 -10 9 16 38
28 31 6 -4 4 -13 -6 -22z m-1138 -7 c0 -29 -1 -29 -17 3 -9 18 -9 22 2 22 9 0
15 -10 15 -25z m-1028 7 c0 -5 -7 -17 -15 -28 -15 -19 -20 -8 -9 20 6 17 24
22 24 8z m2282 -4 c32 -7 58 -15 58 -18 0 -6 -251 -130 -264 -130 -4 0 23 36
61 80 37 44 72 80 77 80 6 0 36 -5 68 -12z m-1314 -18 c-7 -11 -17 -20 -22
-20 -5 0 -1 9 9 20 10 11 20 20 22 20 2 0 -2 -9 -9 -20z m-228 0 c0 -5 -5 -10
-11 -10 -5 0 -7 5 -4 10 3 6 8 10 11 10 2 0 4 -4 4 -10z m-330 -46 c0 -27 -12
-31 -30 -9 -10 12 -10 18 0 30 16 19 30 10 30 -21z m2072 21 c14 -2 36 -12 47
-21 13 -12 63 -25 133 -37 62 -10 115 -20 117 -23 2 -2 -6 -65 -18 -141 -12
-76 -21 -148 -21 -160 0 -13 -4 -23 -9 -23 -5 0 -92 25 -193 55 -283 86 -336
102 -438 131 -52 15 -99 31 -104 35 -5 4 65 44 155 88 90 44 173 87 184 96 20
15 31 15 147 0z m-1810 -40 c-10 -37 -37 -45 -46 -13 -4 16 0 28 16 41 27 23
40 10 30 -28z m218 11 c0 -3 -4 -8 -10 -11 -5 -3 -10 -1 -10 4 0 6 5 11 10 11
6 0 10 -2 10 -4z m50 -7 c0 -6 -8 -18 -17 -27 -16 -16 -16 -16 -10 1 4 10 7
23 7 28 0 5 5 9 10 9 6 0 10 -5 10 -11z m70 2 c0 -12 -58 -61 -73 -61 -6 0 4
16 23 35 34 35 50 43 50 26z m-952 -16 c2 -2 -16 -44 -40 -94 -39 -82 -46 -91
-71 -91 -56 0 -15 -18 118 -50 75 -18 134 -36 133 -40 -2 -4 -50 -44 -107 -89
l-105 -81 -58 3 -59 2 6 80 c4 44 13 105 21 135 7 30 18 75 24 98 9 36 15 43
31 39 21 -6 25 3 9 19 -14 14 11 64 33 64 9 0 17 5 17 11 0 9 36 4 48 -6z
m307 -2 c23 -31 -1 -55 -34 -34 -10 7 -11 13 -2 30 14 25 20 26 36 4z m-155
-25 c36 -6 66 -12 68 -14 2 -1 -11 -31 -29 -65 -18 -35 -38 -82 -44 -104 -7
-22 -16 -40 -21 -40 -30 1 -184 50 -184 59 1 6 11 30 23 52 12 23 31 59 42 80
25 48 34 56 60 49 11 -3 49 -10 85 -17z m390 12 c0 -5 -5 -10 -11 -10 -5 0 -7
5 -4 10 3 6 8 10 11 10 2 0 4 -4 4 -10z m224 -34 c-7 -28 -19 -34 -27 -13 -4
12 22 51 30 43 2 -2 1 -15 -3 -30z m-164 -1 c0 -8 -4 -15 -10 -15 -5 0 -10 7
-10 15 0 8 5 15 10 15 6 0 10 -7 10 -15z m-290 -14 c0 -8 -82 -52 -87 -47 -3
2 2 17 11 33 12 25 20 29 45 25 17 -2 31 -7 31 -11z m180 9 c0 -5 -5 -10 -11
-10 -5 0 -7 5 -4 10 3 6 8 10 11 10 2 0 4 -4 4 -10z m60 -19 c0 -24 -3 -28
-20 -24 -11 3 -23 9 -25 13 -9 15 7 40 26 40 14 0 19 -7 19 -29z m297 13 c-3
-3 -12 -4 -19 -1 -8 3 -5 6 6 6 11 1 17 -2 13 -5z m-384 -51 c-6 -14 -22 -16
-47 -7 -13 5 -14 9 -5 20 6 8 18 14 25 14 8 0 14 6 15 13 0 6 4 3 8 -8 5 -11
6 -26 4 -32z m1310 12 c48 -14 87 -28 87 -31 0 -6 -268 -138 -322 -159 -27
-10 -48 -21 -48 -25 0 -15 -33 -21 -42 -8 -7 10 -13 8 -25 -9 -20 -30 -31 -29
-25 2 6 32 16 39 40 26 15 -8 33 9 121 114 56 68 108 122 114 120 7 -2 51 -16
100 -30z m-1433 5 c0 -5 -4 -10 -10 -10 -5 0 -10 5 -10 10 0 6 5 10 10 10 6 0
10 -4 10 -10z m-47 -27 c-13 -9 -23 -21 -23 -29 0 -34 -69 -69 -86 -43 -8 14
13 35 72 69 50 28 78 30 37 3z m211 11 c23 -9 20 -24 -4 -24 -11 0 -20 7 -20
15 0 17 2 18 24 9z m213 -16 c-3 -8 -6 -5 -6 6 -1 11 2 17 5 13 3 -3 4 -12 1
-19z m-19 -5 c-2 -12 3 -18 15 -17 18 2 23 -11 8 -20 -12 -8 -44 31 -36 43 10
17 16 13 13 -6z m-18 -38 l23 -25 -36 0 c-37 0 -42 5 -31 34 8 22 17 20 44 -9z
m-85 -24 c-3 -6 -14 -11 -23 -11 -15 1 -15 2 2 15 21 16 32 13 21 -4z m-305
-15 c0 -3 -4 -8 -10 -11 -5 -3 -10 -1 -10 4 0 6 5 11 10 11 6 0 10 -2 10 -4z
m344 -30 c-37 -32 -47 -33 -32 -2 6 14 20 27 32 28 31 5 31 2 0 -26z m-104 -9
c0 -20 -1 -20 -16 -5 -9 9 -13 21 -9 27 10 16 25 3 25 -22z m50 26 c-1 -5 -7
-19 -15 -33 -10 -18 -14 -20 -15 -8 0 9 -3 23 -6 32 -4 12 0 16 15 16 12 0 21
-3 21 -7z m-58 -60 c26 -23 22 -33 -12 -33 -31 0 -35 6 -24 34 8 20 13 20 36
-1z m-285 -18 c9 -26 -4 -29 -33 -6 l-27 21 27 0 c15 0 29 -7 33 -15z m53 -3
c0 -11 -22 -32 -32 -32 -5 0 -4 9 2 20 11 20 30 28 30 12z m-500 -42 c0 -40
-13 -53 -24 -25 -5 15 9 65 19 65 3 0 5 -18 5 -40z m420 15 c10 -12 10 -19 2
-27 -14 -14 -17 -11 -26 20 -8 25 5 29 24 7z m-60 -29 c-14 -14 -22 -2 -14 18
5 14 9 15 15 4 4 -7 4 -17 -1 -22z m276 -24 c-24 -24 -30 -7 -9 28 17 29 18
30 21 10 2 -13 -3 -30 -12 -38z m71 41 c-9 -9 -19 -14 -23 -11 -10 10 6 28 24
28 15 0 15 -1 -1 -17z m-392 -12 c-3 -6 -14 -11 -23 -11 -15 1 -15 2 2 15 21
16 32 13 21 -4z m1635 9 c20 -6 21 -8 5 -8 -11 0 -33 4 -50 8 -27 7 -27 8 -5
8 14 0 36 -4 50 -8z m-2360 -30 c0 -5 -5 -10 -11 -10 -5 0 -7 5 -4 10 3 6 8
10 11 10 2 0 4 -4 4 -10z m780 -19 c0 -16 -38 -51 -55 -51 -9 0 -6 30 5 51 14
25 50 25 50 0z m-386 -32 c-3 -5 -16 -9 -29 -9 -23 0 -24 2 -13 25 11 24 12
24 29 9 10 -9 16 -21 13 -25z m316 37 c0 -3 -4 -8 -10 -11 -5 -3 -10 -1 -10 4
0 6 5 11 10 11 6 0 10 -2 10 -4z m-423 -60 c14 -14 -12 -23 -55 -18 -35 3 -51
0 -60 -11 -10 -12 -92 -272 -92 -291 0 -6 -117 -96 -124 -96 -8 0 -7 69 0 98
6 20 11 22 58 18 l51 -5 -52 11 c-40 8 -53 15 -53 28 0 18 60 234 79 282 l9
24 117 -17 c65 -10 119 -20 122 -23z m1088 9 c76 -23 84 -36 38 -68 -65 -44
-90 -50 -163 -35 -57 11 -90 26 -90 42 0 9 63 49 99 62 47 17 53 17 116 -1z
m-534 -28 c-8 -8 -11 -7 -11 4 0 20 13 34 18 19 3 -7 -1 -17 -7 -23z m2718 17
c9 -9 -15 -38 -48 -57 l-31 -19 0 30 c0 52 9 65 43 58 17 -3 33 -9 36 -12z
m-2659 -8 c0 -8 -5 -18 -10 -21 -6 -4 -8 -11 -5 -16 4 -5 -1 -9 -9 -9 -19 0
-19 1 -6 34 10 28 30 35 30 12z m1164 -17 c14 -17 26 -34 26 -39 0 -5 18 -36
40 -69 22 -33 40 -64 40 -70 0 -5 3 -11 8 -13 10 -4 77 -98 96 -136 26 -50 20
-172 -12 -262 -26 -72 -28 -75 -57 -73 -23 2 -25 1 -11 -5 15 -7 19 -22 22
-88 2 -43 4 -97 4 -119 -1 -46 -17 -105 -30 -105 -5 0 -30 12 -55 27 l-45 28
0 77 c0 45 -4 78 -10 78 -6 0 -10 -31 -10 -74 0 -57 -4 -75 -15 -80 -31 -12
-74 8 -120 54 l-48 49 6 75 c6 66 5 76 -9 76 -14 0 -15 9 -9 67 9 84 12 91 38
95 26 4 38 48 13 48 -11 0 -16 9 -16 28 0 29 45 261 51 265 42 24 46 24 113 5
38 -10 70 -17 73 -15 2 3 -29 14 -69 24 -53 15 -72 24 -70 35 1 9 -5 19 -14
22 -13 5 -15 15 -9 59 4 28 9 55 12 60 10 16 43 5 67 -24z m-1664 -33 c0 -30
-4 -57 -9 -60 -8 -6 -71 66 -71 81 0 9 45 30 68 32 8 1 12 -16 12 -53z m3575
-60 c159 -46 380 -108 490 -139 459 -129 432 -120 456 -151 l23 -29 -29 6
c-17 3 -172 35 -345 71 -295 61 -666 139 -718 151 -22 5 -23 10 -19 55 3 28 1
50 -4 50 -5 0 -9 -18 -9 -40 0 -53 -13 -57 -109 -37 -42 9 -100 22 -129 28
l-52 11 19 27 c11 15 23 40 27 57 11 49 20 53 67 37 23 -8 172 -52 332 -97z
m-3530 84 c-8 -13 8 -13 22 1 6 6 13 7 16 1 4 -5 -7 -19 -23 -31 l-30 -22 0
31 c0 16 5 30 11 30 5 0 7 -4 4 -10z m340 -31 c-6 -16 -9 -18 -16 -8 -4 8 -3
19 3 26 15 18 21 9 13 -18z m-425 -71 c0 -14 -82 -70 -90 -62 -6 6 -4 30 4 61
21 78 25 81 57 42 16 -19 29 -37 29 -41z m505 62 c3 -5 -1 -10 -9 -10 -9 0
-16 5 -16 10 0 6 4 10 9 10 6 0 13 -4 16 -10z m635 -31 c0 -8 -61 -21 -68 -14
-3 3 5 17 19 31 22 23 24 24 36 8 7 -10 13 -21 13 -25z m-76 19 c-15 -27 -37
-47 -45 -42 -16 10 -9 23 19 38 34 19 35 19 26 4z m2091 -18 c-30 -31 -45 -38
-45 -20 0 9 57 50 69 50 3 0 -8 -13 -24 -30z m-3050 0 c-10 -11 -20 -18 -23
-15 -7 6 18 35 31 35 5 0 2 -9 -8 -20z m45 -1 c-7 -11 -14 -19 -16 -16 -7 7 7
37 17 37 6 0 5 -9 -1 -21z m740 1 c22 -7 21 -8 -12 -9 -20 -1 -40 4 -43 9 -7
12 19 12 55 0z m-492 -29 c2 -13 0 -27 -5 -32 -13 -13 -47 27 -39 46 9 24 40
14 44 -14z m112 14 c0 -11 -140 -583 -156 -638 -12 -40 -22 -57 -34 -57 -9 0
-43 -18 -76 -39 l-59 -40 -60 14 c-33 7 -104 21 -157 30 -93 16 -97 18 -107
47 l-11 31 -26 -24 c-14 -13 -32 -38 -39 -56 -7 -17 -23 -41 -34 -52 -23 -23
-53 -28 -46 -9 2 7 9 31 15 54 8 34 14 41 33 39 12 -1 14 0 5 2 -27 7 -19 83
7 83 7 0 15 5 17 11 3 9 18 9 57 0 30 -6 56 -9 58 -7 3 2 -21 10 -51 17 -31 7
-56 15 -56 19 0 7 39 42 115 101 22 17 39 38 39 46 -1 7 45 49 102 91 57 42
181 136 276 209 162 123 188 141 188 128z m176 -1 l29 -6 0 -84 c0 -61 4 -87
14 -93 7 -5 10 -14 7 -20 -4 -6 0 -14 8 -17 9 -3 16 -13 16 -21 0 -8 9 -17 20
-20 11 -3 20 -9 20 -13 0 -12 60 -41 71 -35 4 3 10 1 14 -5 7 -12 116 -3 129
10 6 6 17 10 26 10 32 0 120 98 120 135 0 7 7 18 15 25 12 10 15 9 15 -7 0
-10 4 -23 9 -28 4 -6 20 -41 35 -80 15 -38 35 -78 43 -87 14 -16 10 -24 -62
-98 -43 -44 -86 -80 -94 -80 -31 0 -41 15 -34 53 5 31 10 37 32 38 25 2 25 2
3 6 -19 4 -23 9 -18 26 3 12 7 42 10 67 5 39 3 37 -11 -17 -11 -44 -21 -63
-32 -63 -13 0 -13 -2 -2 -9 9 -6 11 -20 6 -50 -6 -38 -9 -41 -38 -40 -64 3
-92 13 -89 34 2 19 2 19 -11 3 -8 -11 -28 -18 -46 -18 -21 0 -31 -5 -31 -15 0
-14 7 -19 47 -30 8 -3 9 -14 3 -37 -4 -18 -18 -78 -30 -133 -42 -192 -40 -187
-69 -181 -14 3 -68 13 -119 22 -50 9 -94 20 -97 24 -9 15 89 174 113 185 14 6
26 24 33 50 6 22 14 42 18 45 3 3 14 20 25 38 14 27 16 36 6 45 -10 9 -14 9
-17 0 -3 -7 -10 -13 -17 -13 -20 0 -57 -45 -51 -61 4 -10 -22 -45 -69 -95 -68
-72 -75 -77 -76 -53 0 15 7 32 15 39 8 7 15 20 15 29 1 9 15 53 33 98 32 79
110 182 140 184 29 1 -32 18 -68 18 -32 0 -37 -2 -24 -11 15 -10 15 -14 -2
-42 -27 -47 -99 -114 -99 -93 0 9 -7 17 -15 17 -9 0 -15 -9 -15 -21 0 -11 -13
-34 -30 -51 -16 -16 -30 -26 -30 -21 0 10 27 135 40 188 6 22 13 50 15 61 13
58 66 281 70 292 5 13 35 15 81 6z m-506 -18 c0 -3 -4 -8 -10 -11 -5 -3 -10
-1 -10 4 0 6 5 11 10 11 6 0 10 -2 10 -4z m106 -24 c-13 -26 -46 -40 -46 -21
0 7 48 49 57 49 2 0 -3 -13 -11 -28z m617 21 c4 -3 -3 -13 -14 -21 -19 -13
-23 -13 -37 3 -16 17 -16 17 1 12 9 -4 17 -2 17 3 0 11 23 13 33 3z m-89 -27
c87 -52 178 -236 117 -236 -96 0 -181 96 -181 205 0 63 6 66 64 31z m600 3 c6
-6 3 -44 -8 -101 -36 -190 -36 -189 -59 -186 -15 2 -23 11 -25 28 -2 14 -17
60 -34 104 -22 56 -29 88 -25 113 7 43 15 52 27 33 8 -13 12 -11 25 8 14 19
22 22 53 16 20 -3 41 -10 46 -15z m-1074 -4 c0 -8 -4 -15 -10 -15 -5 0 -10 7
-10 15 0 8 5 15 10 15 6 0 10 -7 10 -15z m851 -48 c-8 -8 -11 -7 -11 4 0 20
13 34 18 19 3 -7 -1 -17 -7 -23z m-46 -9 c-11 -53 -53 -116 -95 -144 -53 -35
-64 -25 -56 48 10 103 12 106 69 116 89 16 89 16 82 -20z m-925 2 c0 -5 -4
-10 -10 -10 -5 0 -10 5 -10 10 0 6 5 10 10 10 6 0 10 -4 10 -10z m40 1 c0 -6
-4 -13 -10 -16 -5 -3 -10 1 -10 9 0 9 5 16 10 16 6 0 10 -4 10 -9z m723 -35
c-3 -13 -11 -23 -19 -22 -24 4 -28 16 -8 31 27 20 32 19 27 -9z m-1419 -20
c-3 -14 -13 -26 -20 -26 -12 0 -12 5 1 31 19 36 29 33 19 -5z m646 3 c0 -5 -4
-9 -10 -9 -5 0 -10 7 -10 16 0 8 5 12 10 9 6 -3 10 -10 10 -16z m-650 -68 c0
-23 -16 -36 -25 -21 -9 14 1 40 15 40 5 0 10 -9 10 -19z m317 -25 c-4 -9 -11
-16 -17 -16 -11 0 -14 33 -3 44 11 10 26 -11 20 -28z m249 7 c-10 -10 -19 5
-10 18 6 11 8 11 12 0 2 -7 1 -15 -2 -18z m-96 -8 c10 -12 10 -15 -4 -15 -9 0
-16 7 -16 15 0 8 2 15 4 15 2 0 9 -7 16 -15z m-480 -50 c0 -6 -25 -23 -55 -38
-30 -15 -55 -24 -55 -21 0 4 14 31 31 61 l31 54 24 -22 c13 -12 24 -28 24 -34z
m510 8 c-1 -8 -21 -24 -73 -58 -42 -27 -24 4 21 37 38 28 52 34 52 21z m1925
-43 c19 -37 19 -37 -5 -50 -19 -10 -20 -8 -20 35 0 25 2 45 5 45 2 0 11 -13
20 -30z m-639 -55 c3 -8 1 -46 -6 -85 l-12 -70 -33 0 c-49 0 -65 9 -66 39 l-1
26 -10 -27 c-9 -27 -27 -36 -41 -21 -10 10 125 150 146 152 10 0 20 -6 23 -14z
m-1809 -47 c-3 -8 -6 -5 -6 6 -1 11 2 17 5 13 3 -3 4 -12 1 -19z m1050 -100
c-3 -8 -6 -5 -6 6 -1 11 2 17 5 13 3 -3 4 -12 1 -19z m513 -18 c47 -6 89 -15
94 -20 7 -7 -2 -62 -51 -288 l-15 -73 -32 6 c-78 16 -105 26 -101 38 6 16 65
299 65 311 0 5 -3 7 -6 3 -5 -5 -20 -70 -58 -262 -10 -51 -15 -60 -31 -57 -11
2 -39 5 -62 9 -47 6 -49 11 -32 78 10 41 59 267 59 273 0 4 41 0 170 -18z
m196 -30 c8 0 14 -8 14 -17 1 -31 -63 -338 -72 -348 -4 -5 -8 17 -8 50 0 44
-3 56 -10 45 -6 -8 -9 -32 -8 -52 2 -41 1 -42 -41 -33 -27 6 -28 7 -20 48 5
23 13 65 18 92 11 60 41 195 47 214 3 9 14 12 35 7 18 -3 38 -6 45 -6z m-1750
-16 c-3 -9 -6 -20 -6 -25 0 -5 -4 -9 -10 -9 -5 0 -10 11 -10 25 0 16 6 25 16
25 11 0 14 -5 10 -16z m64 6 c0 -5 -4 -10 -10 -10 -5 0 -10 5 -10 10 0 6 5 10
10 10 6 0 10 -4 10 -10z m1100 -11 c-7 -11 -20 -29 -30 -39 -9 -9 -32 -44 -49
-76 -50 -94 -73 -118 -104 -110 -32 8 -35 22 -7 31 11 3 20 11 20 17 0 9 169
198 177 198 2 0 -1 -9 -7 -21z m-1210 -18 c0 -6 -4 -13 -10 -16 -5 -3 -10 1
-10 9 0 9 5 16 10 16 6 0 10 -4 10 -9z m86 -19 c-18 -16 -18 -16 -6 6 6 13 14
21 18 18 3 -4 -2 -14 -12 -24z m944 -8 c-13 -55 -31 -94 -45 -94 -7 0 -18 -7
-26 -16 -10 -13 -10 -17 1 -24 12 -7 11 -15 -5 -44 -11 -20 -23 -36 -28 -36
-4 0 -12 -12 -18 -26 -15 -40 -22 -22 -9 23 6 21 18 63 25 94 11 44 25 68 62
107 26 28 49 51 49 51 1 1 -2 -15 -6 -35z m-1020 -29 c0 -26 -7 -29 -34 -19
-27 10 -20 44 9 44 20 0 25 -5 25 -25z m1035 -64 c-3 -6 -11 -11 -17 -11 -6 0
-6 6 2 15 14 17 26 13 15 -4z"/>
<path d="M3170 3456 c0 -6 151 -38 156 -33 3 3 -27 12 -67 21 -75 17 -89 19
-89 12z"/>
<path d="M3340 3416 c0 -2 11 -6 25 -8 13 -3 22 -1 19 3 -5 9 -44 13 -44 5z"/>
<path d="M3040 3486 c0 -2 13 -6 29 -8 17 -2 28 -1 25 4 -5 8 -54 12 -54 4z"/>
<path d="M3301 2754 c0 -11 3 -14 6 -6 3 7 2 16 -1 19 -3 4 -6 -2 -5 -13z"/>
<path d="M1590 1940 c14 -4 32 -8 40 -9 13 -1 13 0 0 9 -8 5 -26 9 -40 9 l-25
-1 25 -8z"/>
<path d="M2660 2000 c8 -5 20 -10 25 -10 6 0 3 5 -5 10 -8 5 -19 10 -25 10 -5
0 -3 -5 5 -10z"/>
<path d="M2388 1793 c7 -3 16 -2 19 1 4 3 -2 6 -13 5 -11 0 -14 -3 -6 -6z"/>
<path d="M2628 1743 c6 -2 18 -2 25 0 6 3 1 5 -13 5 -14 0 -19 -2 -12 -5z"/>
<path d="M3175 1820 c27 -12 43 -12 25 0 -8 5 -22 9 -30 9 -10 0 -8 -3 5 -9z"/>
<path d="M3220 1807 c0 -7 122 -48 127 -43 3 2 -20 12 -49 21 -29 10 -59 20
-65 23 -7 2 -13 2 -13 -1z"/>
<path d="M3419 1735 c18 -8 38 -15 45 -15 6 1 -4 7 -23 15 -18 8 -38 15 -45
15 -6 -1 4 -7 23 -15z"/>
<path d="M3490 1710 c8 -5 22 -9 30 -9 10 0 8 3 -5 9 -27 12 -43 12 -25 0z"/>
<path d="M1395 1160 c11 -5 29 -9 40 -9 l20 0 -20 9 c-11 5 -29 9 -40 9 l-20
0 20 -9z"/>
<path d="M3905 1570 c28 -10 57 -18 65 -18 8 0 -7 8 -35 18 -27 10 -57 18 -65
18 -8 0 8 -8 35 -18z"/>
<path d="M4000 1540 c8 -5 22 -9 30 -9 10 0 8 3 -5 9 -27 12 -43 12 -25 0z"/>
<path d="M4060 1520 c8 -5 22 -9 30 -9 10 0 8 3 -5 9 -27 12 -43 12 -25 0z"/>
<path d="M4210 1470 c8 -5 22 -9 30 -9 10 0 8 3 -5 9 -27 12 -43 12 -25 0z"/>
<path d="M3781 1456 c2 -2 51 -16 109 -30 58 -15 122 -32 143 -37 36 -9 37
-11 39 -57 l1 -47 4 43 4 44 37 -6 c65 -10 3 10 -162 53 -143 38 -186 47 -175
37z"/>
<path d="M4420 1402 c8 -5 26 -13 40 -16 17 -5 20 -4 10 2 -8 5 -26 13 -40 16
-17 5 -20 4 -10 -2z"/>
<path d="M4540 1360 c8 -5 20 -10 25 -10 6 0 3 5 -5 10 -8 5 -19 10 -25 10 -5
0 -3 -5 5 -10z"/>
<path d="M4285 1325 c72 -18 202 -52 289 -74 154 -39 184 -46 175 -37 -7 7
-562 146 -578 145 -9 -1 43 -16 114 -34z"/>
<path d="M4625 1330 c27 -12 43 -12 25 0 -8 5 -22 9 -30 9 -10 0 -8 -3 5 -9z"/>
<path d="M2338 1533 c7 -3 16 -2 19 1 4 3 -2 6 -13 5 -11 0 -14 -3 -6 -6z"/>
<path d="M2128 463 c6 -2 18 -2 25 0 6 3 1 5 -13 5 -14 0 -19 -2 -12 -5z"/>
<path d="M2178 453 c6 -2 18 -2 25 0 6 3 1 5 -13 5 -14 0 -19 -2 -12 -5z"/>
<path d="M2240 440 c14 -4 34 -8 45 -8 16 0 15 2 -5 8 -14 4 -34 8 -45 8 -16
0 -15 -2 5 -8z"/>
<path d="M818 713 c7 -3 16 -2 19 1 4 3 -2 6 -13 5 -11 0 -14 -3 -6 -6z"/>
<path d="M863 703 c9 -2 23 -2 30 0 6 3 -1 5 -18 5 -16 0 -22 -2 -12 -5z"/>
<path d="M938 693 c6 -2 18 -2 25 0 6 3 1 5 -13 5 -14 0 -19 -2 -12 -5z"/>
<path d="M998 683 c7 -3 16 -2 19 1 4 3 -2 6 -13 5 -11 0 -14 -3 -6 -6z"/>
<path d="M575 335 c17 -8 37 -14 45 -14 8 0 -1 7 -20 14 -46 18 -64 17 -25 0z"/>
<path d="M675 306 c22 -7 56 -16 75 -19 33 -6 33 -6 -5 7 -22 7 -56 16 -75 19
-33 6 -33 6 5 -7z"/>
<path d="M798 273 c7 -3 16 -2 19 1 4 3 -2 6 -13 5 -11 0 -14 -3 -6 -6z"/>
<path d="M1148 663 c7 -3 16 -2 19 1 4 3 -2 6 -13 5 -11 0 -14 -3 -6 -6z"/>
<path d="M1203 653 c9 -2 23 -2 30 0 6 3 -1 5 -18 5 -16 0 -22 -2 -12 -5z"/>
<path d="M1388 623 c7 -3 16 -2 19 1 4 3 -2 6 -13 5 -11 0 -14 -3 -6 -6z"/>
<path d="M1440 610 c14 -4 34 -8 45 -8 16 0 15 2 -5 8 -14 4 -34 8 -45 8 -16
0 -15 -2 5 -8z"/>
<path d="M1518 593 c7 -3 16 -2 19 1 4 3 -2 6 -13 5 -11 0 -14 -3 -6 -6z"/>
<path d="M1575 580 c17 -4 39 -8 50 -8 16 0 15 2 -5 8 -14 4 -36 8 -50 8 -22
0 -22 -1 5 -8z"/>
<path d="M1341 570 c0 -8 4 -24 9 -35 5 -13 9 -14 9 -5 0 8 -4 24 -9 35 -5 13
-9 14 -9 5z"/>
<path d="M1748 543 c7 -3 16 -2 19 1 4 3 -2 6 -13 5 -11 0 -14 -3 -6 -6z"/>
<path d="M1228 153 c7 -3 16 -2 19 1 4 3 -2 6 -13 5 -11 0 -14 -3 -6 -6z"/>
<path d="M1268 143 c7 -3 16 -2 19 1 4 3 -2 6 -13 5 -11 0 -14 -3 -6 -6z"/>
<path d="M1888 513 c7 -3 16 -2 19 1 4 3 -2 6 -13 5 -11 0 -14 -3 -6 -6z"/>
<path d="M2380 3850 c34 -11 60 -11 35 0 -11 5 -29 8 -40 8 -16 0 -15 -2 5 -8z"/>
<path d="M2445 3834 c31 -12 459 -114 467 -112 11 4 -450 119 -467 117 -7 0
-7 -2 0 -5z"/>
<path d="M2938 3713 c6 -2 18 -2 25 0 6 3 1 5 -13 5 -14 0 -19 -2 -12 -5z"/>
<path d="M3055 3685 c22 -8 49 -13 60 -13 11 0 -2 6 -30 14 -63 17 -84 16 -30
-1z"/>
<path d="M3590 3530 c8 -5 20 -10 25 -10 6 0 3 5 -5 10 -8 5 -19 10 -25 10 -5
0 -3 -5 5 -10z"/>
<path d="M3640 3510 c8 -5 20 -10 25 -10 6 0 3 5 -5 10 -8 5 -19 10 -25 10 -5
0 -3 -5 5 -10z"/>
<path d="M3690 3490 c8 -5 20 -10 25 -10 6 0 3 5 -5 10 -8 5 -19 10 -25 10 -5
0 -3 -5 5 -10z"/>
<path d="M4140 3306 c0 -2 7 -7 16 -10 8 -3 12 -2 9 4 -6 10 -25 14 -25 6z"/>
<path d="M4190 3160 c8 -5 22 -9 30 -9 10 0 8 3 -5 9 -27 12 -43 12 -25 0z"/>
<path d="M4390 3090 c8 -5 22 -9 30 -9 10 0 8 3 -5 9 -27 12 -43 12 -25 0z"/>
<path d="M4700 3080 c8 -5 20 -10 25 -10 6 0 3 5 -5 10 -8 5 -19 10 -25 10 -5
0 -3 -5 5 -10z"/>
<path d="M4480 3060 c8 -5 20 -10 25 -10 6 0 3 5 -5 10 -8 5 -19 10 -25 10 -5
0 -3 -5 5 -10z"/>
<path d="M4535 3040 c27 -12 43 -12 25 0 -8 5 -22 9 -30 9 -10 0 -8 -3 5 -9z"/>
<path d="M4605 3016 c17 -7 41 -16 55 -20 20 -5 19 -3 -5 8 -16 7 -41 16 -55
20 -20 5 -19 3 5 -8z"/>
<path d="M4775 2956 c17 -7 41 -16 55 -20 20 -5 19 -3 -5 8 -16 7 -41 16 -55
20 -20 5 -19 3 5 -8z"/>
<path d="M4885 2915 c17 -8 37 -14 45 -14 8 0 -1 7 -20 14 -46 18 -64 17 -25
0z"/>
<path d="M5150 2900 c8 -5 20 -10 25 -10 6 0 3 5 -5 10 -8 5 -19 10 -25 10 -5
0 -3 -5 5 -10z"/>
<path d="M4971 2886 c13 -12 600 -218 606 -212 2 2 -38 18 -89 36 -51 18 -186
65 -299 106 -188 68 -230 81 -218 70z"/>
<path d="M5260 2855 c14 -8 30 -14 35 -14 6 0 -1 6 -15 14 -14 8 -29 14 -35
14 -5 0 1 -6 15 -14z"/>
<path d="M5320 2830 c8 -5 20 -10 25 -10 6 0 3 5 -5 10 -8 5 -19 10 -25 10 -5
0 -3 -5 5 -10z"/>
<path d="M5370 2810 c8 -5 20 -10 25 -10 6 0 3 5 -5 10 -8 5 -19 10 -25 10 -5
0 -3 -5 5 -10z"/>
<path d="M5455 2776 c28 -13 61 -26 75 -30 14 -3 2 5 -27 18 -28 13 -62 27
-75 30 -12 3 0 -5 27 -18z"/>
<path d="M5570 2730 c8 -5 20 -10 25 -10 6 0 3 5 -5 10 -8 5 -19 10 -25 10 -5
0 -3 -5 5 -10z"/>
<path d="M5620 2710 c8 -5 20 -10 25 -10 6 0 3 5 -5 10 -8 5 -19 10 -25 10 -5
0 -3 -5 5 -10z"/>
<path d="M5600 2660 c8 -5 20 -10 25 -10 6 0 3 5 -5 10 -8 5 -19 10 -25 10 -5
0 -3 -5 5 -10z"/>
<path d="M5660 2640 c8 -5 20 -10 25 -10 6 0 3 5 -5 10 -8 5 -19 10 -25 10 -5
0 -3 -5 5 -10z"/>
<path d="M5760 2607 c0 -3 15 -10 32 -16 18 -6 28 -7 23 -2 -12 10 -55 25 -55
18z"/>
<path d="M5830 2584 c0 -7 52 -25 57 -20 2 2 -10 8 -26 14 -17 6 -31 9 -31 6z"/>
<path d="M15 2560 c19 -8 93 -14 84 -6 -2 2 -26 6 -54 9 -32 4 -43 3 -30 -3z"/>
<path d="M5915 2550 c27 -12 43 -12 25 0 -8 5 -22 9 -30 9 -10 0 -8 -3 5 -9z"/>
<path d="M123 2543 c9 -2 25 -2 35 0 9 3 1 5 -18 5 -19 0 -27 -2 -17 -5z"/>
<path d="M250 2525 c41 -8 107 -16 145 -19 50 -4 36 0 -50 14 -66 11 -131 19
-145 18 -14 0 9 -6 50 -13z"/>
<path d="M6068 2533 c7 -3 16 -2 19 1 4 3 -2 6 -13 5 -11 0 -14 -3 -6 -6z"/>
<path d="M6076 2495 c17 -7 44 -16 60 -20 25 -4 24 -3 -6 8 -19 8 -46 17 -60
20 -19 5 -17 3 6 -8z"/>
<path d="M6150 2500 c8 -5 20 -10 25 -10 6 0 3 5 -5 10 -8 5 -19 10 -25 10 -5
0 -3 -5 5 -10z"/>
<path d="M505 2489 c22 -4 51 -8 65 -7 16 0 11 3 -15 9 -22 4 -51 8 -65 7 -16
0 -11 -3 15 -9z"/>
<path d="M613 2473 c9 -2 25 -2 35 0 9 3 1 5 -18 5 -19 0 -27 -2 -17 -5z"/>
<path d="M693 2463 c9 -2 25 -2 35 0 9 3 1 5 -18 5 -19 0 -27 -2 -17 -5z"/>
<path d="M780 2450 c19 -5 64 -11 100 -14 l65 -5 -80 14 c-88 15 -141 18 -85
5z"/>
<path d="M6450 2377 c15 -14 216 -88 235 -87 9 1 -234 100 -245 100 -2 0 2 -6
10 -13z"/>
<path d="M6722 2275 c7 -7 259 -101 293 -110 59 -13 17 5 -133 60 -148 53
-171 60 -160 50z"/>
<path d="M1 2255 c10 -10 1100 -226 1133 -224 29 1 -88 26 -504 108 -195 39
-410 81 -478 95 -119 25 -160 31 -151 21z"/>
<path d="M7480 2010 c8 -5 20 -10 25 -10 6 0 3 5 -5 10 -8 5 -19 10 -25 10 -5
0 -3 -5 5 -10z"/>
<path d="M8230 1762 c8 -5 26 -13 40 -16 17 -5 20 -4 10 2 -8 5 -26 13 -40 16
-17 5 -20 4 -10 -2z"/>
<path d="M48 1563 c6 -2 18 -2 25 0 6 3 1 5 -13 5 -14 0 -19 -2 -12 -5z"/>
<path d="M118 1553 c7 -3 16 -2 19 1 4 3 -2 6 -13 5 -11 0 -14 -3 -6 -6z"/>
<path d="M268 1533 c6 -2 18 -2 25 0 6 3 1 5 -13 5 -14 0 -19 -2 -12 -5z"/>
<path d="M508 1503 c6 -2 18 -2 25 0 6 3 1 5 -13 5 -14 0 -19 -2 -12 -5z"/>
<path d="M588 1493 c7 -3 16 -2 19 1 4 3 -2 6 -13 5 -11 0 -14 -3 -6 -6z"/>
<path d="M7295 1446 c17 -7 41 -16 55 -20 20 -5 19 -3 -5 8 -16 7 -41 16 -55
20 -20 5 -19 3 5 -8z"/>
<path d="M7390 1412 c8 -5 26 -13 40 -16 17 -5 20 -4 10 2 -8 5 -26 13 -40 16
-17 5 -20 4 -10 -2z"/>
<path d="M4855 1180 c11 -5 29 -8 40 -8 16 0 15 2 -5 8 -34 11 -60 11 -35 0z"/>
<path d="M5110 1170 c8 -5 22 -9 30 -9 10 0 8 3 -5 9 -27 12 -43 12 -25 0z"/>
<path d="M4940 1160 c32 -15 432 -112 437 -106 3 3 -364 97 -437 112 l-25 5
25 -11z"/>
<path d="M8115 1150 c27 -12 43 -12 25 0 -8 5 -22 9 -30 9 -10 0 -8 -3 5 -9z"/>
<path d="M5265 1120 c27 -12 43 -12 25 0 -8 5 -22 9 -30 9 -10 0 -8 -3 5 -9z"/>
<path d="M5425 1035 c22 -8 49 -14 60 -14 11 0 0 7 -25 15 -25 7 -52 13 -60
13 -8 -1 3 -7 25 -14z"/>
<path d="M8500 1020 c8 -5 22 -10 30 -10 13 0 13 1 0 10 -8 5 -22 10 -30 10
-13 0 -13 -1 0 -10z"/>
<path d="M5545 1006 c22 -7 56 -16 75 -19 33 -6 33 -6 -5 7 -22 7 -56 16 -75
19 -33 6 -33 6 5 -7z"/>
<path d="M8551 1006 c8 -8 330 -116 344 -115 5 0 -62 25 -150 55 -195 66 -202
68 -194 60z"/>
<path d="M5785 945 c179 -48 210 -51 85 -10 -58 19 -130 37 -160 40 -44 3 -29
-3 75 -30z"/>
<path d="M6021 887 c3 -4 55 -22 115 -40 103 -31 109 -34 115 -62 l5 -30 5 37
5 36 -101 26 c-148 39 -150 40 -144 33z"/>
<path d="M9150 807 c0 -7 122 -48 127 -43 3 2 -20 12 -49 21 -29 10 -59 20
-65 23 -7 2 -13 2 -13 -1z"/>
<path d="M6418 783 c7 -3 16 -2 19 1 4 3 -2 6 -13 5 -11 0 -14 -3 -6 -6z"/>
<path d="M6458 773 c7 -3 16 -2 19 1 4 3 -2 6 -13 5 -11 0 -14 -3 -6 -6z"/>
<path d="M9305 750 c27 -12 43 -12 25 0 -8 5 -22 9 -30 9 -10 0 -8 -3 5 -9z"/>
<path d="M9395 720 c27 -12 43 -12 25 0 -8 5 -22 9 -30 9 -10 0 -8 -3 5 -9z"/>
<path d="M5225 641 c6 -6 55 -19 110 -30 55 -11 165 -34 245 -51 79 -16 148
-30 154 -30 31 0 -25 14 -244 60 -135 28 -252 53 -260 56 -10 4 -12 2 -5 -5z"/>
<path d="M9740 610 c8 -5 22 -9 30 -9 10 0 8 3 -5 9 -27 12 -43 12 -25 0z"/>
<path d="M7178 593 c7 -3 16 -2 19 1 4 3 -2 6 -13 5 -11 0 -14 -3 -6 -6z"/>
<path d="M9865 570 c11 -5 27 -9 35 -9 9 0 8 4 -5 9 -11 5 -27 9 -35 9 -9 0
-8 -4 5 -9z"/>
<path d="M3661 546 c7 -7 381 -97 385 -93 5 4 -354 97 -376 97 -7 0 -11 -2 -9
-4z"/>
<path d="M3121 524 c0 -11 3 -14 6 -6 3 7 2 16 -1 19 -3 4 -6 -2 -5 -13z"/>
<path d="M5758 523 c7 -3 16 -2 19 1 4 3 -2 6 -13 5 -11 0 -14 -3 -6 -6z"/>
<path d="M5826 520 c11 -11 245 -63 252 -55 3 3 3 5 -1 5 -3 0 -60 14 -125 30
-132 33 -140 34 -126 20z"/>
<path d="M10018 523 c7 -3 16 -2 19 1 4 3 -2 6 -13 5 -11 0 -14 -3 -6 -6z"/>
<path d="M10088 503 c7 -3 16 -2 19 1 4 3 -2 6 -13 5 -11 0 -14 -3 -6 -6z"/>
<path d="M7698 463 c7 -3 16 -2 19 1 4 3 -2 6 -13 5 -11 0 -14 -3 -6 -6z"/>
<path d="M10888 463 c7 -3 16 -2 19 1 4 3 -2 6 -13 5 -11 0 -14 -3 -6 -6z"/>
<path d="M6108 453 c7 -3 16 -2 19 1 4 3 -2 6 -13 5 -11 0 -14 -3 -6 -6z"/>
<path d="M6261 446 c-1 -15 -6 -17 -31 -12 -77 16 -95 18 -90 13 14 -14 233
-65 253 -58 16 6 6 11 -47 21 -53 10 -69 17 -76 34 -8 19 -9 19 -9 2z"/>
<path d="M10928 453 c6 -2 18 -2 25 0 6 3 1 5 -13 5 -14 0 -19 -2 -12 -5z"/>
<path d="M4068 443 c7 -3 16 -2 19 1 4 3 -2 6 -13 5 -11 0 -14 -3 -6 -6z"/>
<path d="M10971 445 c6 -6 419 -105 438 -105 26 0 5 10 -40 19 -24 5 -122 27
-218 50 -182 43 -187 44 -180 36z"/>
<path d="M4115 430 c11 -5 29 -8 40 -8 16 0 15 2 -5 8 -34 11 -60 11 -35 0z"/>
<path d="M7818 433 c7 -3 16 -2 19 1 4 3 -2 6 -13 5 -11 0 -14 -3 -6 -6z"/>
<path d="M4195 410 c11 -5 27 -9 35 -9 9 0 8 4 -5 9 -11 5 -27 9 -35 9 -9 0
-8 -4 5 -9z"/>
<path d="M10395 410 c27 -12 43 -12 25 0 -8 5 -22 9 -30 9 -10 0 -8 -3 5 -9z"/>
<path d="M4335 375 c50 -13 95 -24 100 -24 19 1 -107 38 -149 43 -22 3 0 -6
49 -19z"/>
<path d="M7968 393 c7 -3 16 -2 19 1 4 3 -2 6 -13 5 -11 0 -14 -3 -6 -6z"/>
<path d="M6405 380 c-25 -11 1 -11 35 0 20 6 21 8 5 8 -11 0 -29 -3 -40 -8z"/>
<path d="M10375 381 c11 -4 38 -11 60 -14 25 -4 33 -4 20 2 -11 4 -38 11 -60
14 -25 4 -33 4 -20 -2z"/>
<path d="M2558 373 c14 -3 22 -12 22 -26 0 -20 0 -20 14 -2 19 26 11 35 -27
34 -24 -1 -26 -3 -9 -6z"/>
<path d="M6528 363 c7 -3 16 -2 19 1 4 3 -2 6 -13 5 -11 0 -14 -3 -6 -6z"/>
<path d="M8098 360 c12 -5 22 -17 23 -27 0 -16 1 -15 8 2 9 23 -3 35 -34 34
-18 0 -18 -1 3 -9z"/>
<path d="M10045 361 c11 -4 38 -11 60 -14 25 -4 33 -4 20 2 -11 4 -38 11 -60
14 -25 4 -33 4 -20 -2z"/>
<path d="M2643 353 c9 -2 23 -2 30 0 6 3 -1 5 -18 5 -16 0 -22 -2 -12 -5z"/>
<path d="M6468 353 c7 -3 16 -2 19 1 4 3 -2 6 -13 5 -11 0 -14 -3 -6 -6z"/>
<path d="M6568 353 c6 -2 18 -2 25 0 6 3 1 5 -13 5 -14 0 -19 -2 -12 -5z"/>
<path d="M10488 353 c7 -3 16 -2 19 1 4 3 -2 6 -13 5 -11 0 -14 -3 -6 -6z"/>
<path d="M2698 343 c7 -3 16 -2 19 1 4 3 -2 6 -13 5 -11 0 -14 -3 -6 -6z"/>
<path d="M4458 343 c7 -3 16 -2 19 1 4 3 -2 6 -13 5 -11 0 -14 -3 -6 -6z"/>
<path d="M10585 331 c39 -10 142 -35 230 -56 88 -21 216 -53 285 -71 69 -18
150 -35 180 -38 30 -3 46 -3 35 0 -148 38 -636 155 -685 164 -106 21 -119 21
-45 1z"/>
<path d="M2748 333 c7 -3 16 -2 19 1 4 3 -2 6 -13 5 -11 0 -14 -3 -6 -6z"/>
<path d="M10158 333 c7 -3 16 -2 19 1 4 3 -2 6 -13 5 -11 0 -14 -3 -6 -6z"/>
<path d="M11455 329 c69 -21 637 -140 643 -135 3 3 1 6 -4 6 -5 0 -153 32
-329 70 -297 65 -384 82 -310 59z"/>
<path d="M4550 320 c34 -11 60 -11 35 0 -11 5 -29 8 -40 8 -16 0 -15 -2 5 -8z"/>
<path d="M10198 323 c7 -3 16 -2 19 1 4 3 -2 6 -13 5 -11 0 -14 -3 -6 -6z"/>
<path d="M6770 310 c14 -4 36 -8 50 -8 l25 0 -25 8 c-14 4 -36 8 -50 8 l-25 0
25 -8z"/>
<path d="M10250 310 c14 -4 34 -8 45 -8 16 0 15 2 -5 8 -14 4 -34 8 -45 8 -16
0 -15 -2 5 -8z"/>
<path d="M4618 303 c6 -2 18 -2 25 0 6 3 1 5 -13 5 -14 0 -19 -2 -12 -5z"/>
<path d="M2948 293 c7 -3 16 -2 19 1 4 3 -2 6 -13 5 -11 0 -14 -3 -6 -6z"/>
<path d="M4668 293 c7 -3 16 -2 19 1 4 3 -2 6 -13 5 -11 0 -14 -3 -6 -6z"/>
<path d="M6735 285 c27 -8 51 -12 53 -10 5 5 -69 25 -88 24 -8 0 7 -7 35 -14z"/>
<path d="M10345 290 c17 -5 100 -26 185 -45 85 -19 205 -46 265 -60 279 -65
766 -166 779 -162 5 2 -51 16 -125 31 -214 44 -432 92 -754 166 -294 67 -416
92 -350 70z"/>
<path d="M2998 283 c7 -3 16 -2 19 1 4 3 -2 6 -13 5 -11 0 -14 -3 -6 -6z"/>
<path d="M4720 280 c34 -11 60 -11 35 0 -11 5 -29 8 -40 8 -16 0 -15 -2 5 -8z"/>
<path d="M6925 280 c11 -5 29 -8 40 -8 16 0 15 2 -5 8 -34 11 -60 11 -35 0z"/>
<path d="M2644 193 c2 -69 8 -96 25 -125 25 -41 61 -68 90 -68 17 0 19 4 12
22 -4 13 -19 28 -32 35 -36 18 -49 42 -50 92 -1 56 -20 123 -37 129 -9 3 -11
-18 -8 -85z"/>
<path d="M3050 270 c14 -4 34 -8 45 -8 16 0 15 2 -5 8 -14 4 -34 8 -45 8 -16
0 -15 -2 5 -8z"/>
<path d="M4800 260 c34 -11 60 -11 35 0 -11 5 -29 8 -40 8 -16 0 -15 -2 5 -8z"/>
<path d="M6818 263 c7 -3 16 -2 19 1 4 3 -2 6 -13 5 -11 0 -14 -3 -6 -6z"/>
<path d="M7008 263 c7 -3 16 -2 19 1 4 3 -2 6 -13 5 -11 0 -14 -3 -6 -6z"/>
<path d="M3128 253 c6 -2 18 -2 25 0 6 3 1 5 -13 5 -14 0 -19 -2 -12 -5z"/>
<path d="M3178 243 c6 -2 18 -2 25 0 6 3 1 5 -13 5 -14 0 -19 -2 -12 -5z"/>
<path d="M4875 240 c11 -5 29 -9 40 -9 l20 0 -20 9 c-11 5 -29 9 -40 9 l-20 0
20 -9z"/>
<path d="M7108 243 c7 -3 16 -2 19 1 4 3 -2 6 -13 5 -11 0 -14 -3 -6 -6z"/>
<path d="M6938 233 c7 -3 16 -2 19 1 4 3 -2 6 -13 5 -11 0 -14 -3 -6 -6z"/>
<path d="M7148 233 c7 -3 16 -2 19 1 4 3 -2 6 -13 5 -11 0 -14 -3 -6 -6z"/>
<path d="M3285 220 c17 -4 39 -8 50 -8 16 0 15 2 -5 8 -14 4 -36 8 -50 8 -22
0 -22 -1 5 -8z"/>
<path d="M4948 223 c7 -3 16 -2 19 1 4 3 -2 6 -13 5 -11 0 -14 -3 -6 -6z"/>
<path d="M6978 223 c7 -3 16 -2 19 1 4 3 -2 6 -13 5 -11 0 -14 -3 -6 -6z"/>
<path d="M7188 223 c7 -3 16 -2 19 1 4 3 -2 6 -13 5 -11 0 -14 -3 -6 -6z"/>
<path d="M7238 213 c7 -3 16 -2 19 1 4 3 -2 6 -13 5 -11 0 -14 -3 -6 -6z"/>
<path d="M7048 203 c7 -3 16 -2 19 1 4 3 -2 6 -13 5 -11 0 -14 -3 -6 -6z"/>
<path d="M7288 203 c7 -3 16 -2 19 1 4 3 -2 6 -13 5 -11 0 -14 -3 -6 -6z"/>
<path d="M5068 193 c7 -3 16 -2 19 1 4 3 -2 6 -13 5 -11 0 -14 -3 -6 -6z"/>
<path d="M3210 157 c-16 -34 -50 -50 -50 -23 0 23 -37 20 -50 -4 -6 -11 -8
-42 -4 -75 6 -52 8 -55 35 -55 27 0 29 3 29 38 0 30 7 45 35 72 20 19 35 44
35 57 0 32 -12 28 -30 -10z"/>
<path d="M5108 183 c7 -3 16 -2 19 1 4 3 -2 6 -13 5 -11 0 -14 -3 -6 -6z"/>
<path d="M7128 183 c7 -3 16 -2 19 1 4 3 -2 6 -13 5 -11 0 -14 -3 -6 -6z"/>
<path d="M7378 183 c7 -3 16 -2 19 1 4 3 -2 6 -13 5 -11 0 -14 -3 -6 -6z"/>
<path d="M12118 183 c6 -2 18 -2 25 0 6 3 1 5 -13 5 -14 0 -19 -2 -12 -5z"/>
<path d="M7168 173 c7 -3 16 -2 19 1 4 3 -2 6 -13 5 -11 0 -14 -3 -6 -6z"/>
<path d="M12168 173 c6 -2 18 -2 25 0 6 3 1 5 -13 5 -14 0 -19 -2 -12 -5z"/>
<path d="M12218 163 c7 -3 16 -2 19 1 4 3 -2 6 -13 5 -11 0 -14 -3 -6 -6z"/>
<path d="M7248 153 c7 -3 16 -2 19 1 4 3 -2 6 -13 5 -11 0 -14 -3 -6 -6z"/>
<path d="M11348 153 c7 -3 16 -2 19 1 4 3 -2 6 -13 5 -11 0 -14 -3 -6 -6z"/>
<path d="M12258 153 c6 -2 18 -2 25 0 6 3 1 5 -13 5 -14 0 -19 -2 -12 -5z"/>
<path d="M7288 143 c7 -3 16 -2 19 1 4 3 -2 6 -13 5 -11 0 -14 -3 -6 -6z"/>
<path d="M11388 143 c7 -3 16 -2 19 1 4 3 -2 6 -13 5 -11 0 -14 -3 -6 -6z"/>
<path d="M12308 143 c6 -2 18 -2 25 0 6 3 1 5 -13 5 -14 0 -19 -2 -12 -5z"/>
<path d="M14285 126 c-44 -13 -159 -45 -255 -71 -96 -26 -177 -49 -179 -51
-14 -14 69 1 178 31 175 48 189 48 211 7 26 -48 28 -48 22 6 l-4 49 71 18 c39
9 71 21 71 26 0 14 -27 10 -115 -15z"/>
<path d="M3703 133 c9 -2 23 -2 30 0 6 3 -1 5 -18 5 -16 0 -22 -2 -12 -5z"/>
<path d="M11438 133 c6 -2 18 -2 25 0 6 3 1 5 -13 5 -14 0 -19 -2 -12 -5z"/>
<path d="M12358 133 c7 -3 16 -2 19 1 4 3 -2 6 -13 5 -11 0 -14 -3 -6 -6z"/>
<path d="M7368 123 c7 -3 16 -2 19 1 4 3 -2 6 -13 5 -11 0 -14 -3 -6 -6z"/>
<path d="M11504 120 c53 -16 378 -81 387 -78 6 2 -81 22 -193 46 -193 40 -258
51 -194 32z"/>
<path d="M12408 123 c7 -3 16 -2 19 1 4 3 -2 6 -13 5 -11 0 -14 -3 -6 -6z"/>
<path d="M3808 113 c7 -3 16 -2 19 1 4 3 -2 6 -13 5 -11 0 -14 -3 -6 -6z"/>
<path d="M7408 113 c7 -3 16 -2 19 1 4 3 -2 6 -13 5 -11 0 -14 -3 -6 -6z"/>
<path d="M3762 61 c2 -30 8 -56 14 -58 8 -3 9 11 2 49 -13 71 -20 75 -16 9z"/>
<path d="M7465 100 c27 -12 43 -12 25 0 -8 5 -22 9 -30 9 -10 0 -8 -3 5 -9z"/>
<path d="M7748 103 c7 -3 16 -2 19 1 4 3 -2 6 -13 5 -11 0 -14 -3 -6 -6z"/>
<path d="M7798 93 c6 -2 18 -2 25 0 6 3 1 5 -13 5 -14 0 -19 -2 -12 -5z"/>
<path d="M3998 73 c6 -2 18 -2 25 0 6 3 1 5 -13 5 -14 0 -19 -2 -12 -5z"/>
<path d="M8166 58 c5 -23 3 -28 -12 -29 -18 0 -17 -1 1 -9 11 -5 27 -9 35 -9
10 1 11 2 3 6 -7 2 -13 12 -13 21 0 10 -5 24 -10 32 -8 11 -9 8 -4 -12z"/>
<path d="M12668 73 c6 -2 18 -2 25 0 6 3 1 5 -13 5 -14 0 -19 -2 -12 -5z"/>
<path d="M4048 63 c6 -2 18 -2 25 0 6 3 1 5 -13 5 -14 0 -19 -2 -12 -5z"/>
<path d="M12718 63 c6 -2 18 -2 25 0 6 3 1 5 -13 5 -14 0 -19 -2 -12 -5z"/>
<path d="M7658 53 c7 -3 16 -2 19 1 4 3 -2 6 -13 5 -11 0 -14 -3 -6 -6z"/>
<path d="M12773 53 c9 -2 23 -2 30 0 6 3 -1 5 -18 5 -16 0 -22 -2 -12 -5z"/>
<path d="M2330 40 c0 -5 5 -10 11 -10 5 0 7 5 4 10 -3 6 -8 10 -11 10 -2 0 -4
-4 -4 -10z"/>
<path d="M4148 43 c7 -3 16 -2 19 1 4 3 -2 6 -13 5 -11 0 -14 -3 -6 -6z"/>
<path d="M7698 43 c7 -3 16 -2 19 1 4 3 -2 6 -13 5 -11 0 -14 -3 -6 -6z"/>
<path d="M8048 43 c7 -3 16 -2 19 1 4 3 -2 6 -13 5 -11 0 -14 -3 -6 -6z"/>
<path d="M12828 43 c7 -3 16 -2 19 1 4 3 -2 6 -13 5 -11 0 -14 -3 -6 -6z"/>
<path d="M7750 30 c34 -11 60 -11 35 0 -11 5 -29 8 -40 8 -16 0 -15 -2 5 -8z"/>
<path d="M8098 33 c7 -3 16 -2 19 1 4 3 -2 6 -13 5 -11 0 -14 -3 -6 -6z"/>
<path d="M11935 30 c17 -4 39 -8 50 -8 16 0 15 2 -5 8 -14 4 -36 8 -50 8 -22
0 -22 -1 5 -8z"/>
<path d="M12878 33 c6 -2 18 -2 25 0 6 3 1 5 -13 5 -14 0 -19 -2 -12 -5z"/>
<path d="M12928 23 c7 -3 16 -2 19 1 4 3 -2 6 -13 5 -11 0 -14 -3 -6 -6z"/>
<path d="M7818 13 c6 -2 18 -2 25 0 6 3 1 5 -13 5 -14 0 -19 -2 -12 -5z"/>
<path d="M11615 10 c17 -4 39 -8 50 -8 16 0 15 2 -5 8 -14 4 -36 8 -50 8 -22
0 -22 -1 5 -8z"/>
<path d="M12035 10 c17 -4 39 -8 50 -8 16 0 15 2 -5 8 -14 4 -36 8 -50 8 -22
0 -22 -1 5 -8z"/>
<path d="M12995 10 c17 -4 44 -8 60 -8 25 0 24 2 -10 9 -51 10 -92 10 -50 -1z"/>
<path d="M5848 3 c7 -3 16 -2 19 1 4 3 -2 6 -13 5 -11 0 -14 -3 -6 -6z"/>
<path d="M7868 3 c7 -3 16 -2 19 1 4 3 -2 6 -13 5 -11 0 -14 -3 -6 -6z"/>
</g>
</svg>
